<?xml version="1.0" encoding="utf-8"?>
<!-- Generator: Adobe Illustrator 15.1.0, SVG Export Plug-In . SVG Version: 6.00 Build 0)  -->
<svg version="1.2" baseProfile="tiny" id="Layer_1" xmlns="http://www.w3.org/2000/svg" xmlns:xlink="http://www.w3.org/1999/xlink"
	 x="0px" y="0px" width="50px" height="50px" viewBox="0 0 50 50" overflow="inherit" xml:space="preserve">
<path d="M38.421,1.246H11.68c-3.632,0-6.576,2.994-6.576,6.692v34.37v0.002c0,3.695,2.943,6.69,6.576,6.69h26.741
	C42.056,49,45,46.005,45,42.31v-0.002V7.938C45,4.24,42.056,1.246,38.421,1.246z M17.557,42.08c0,0.917-0.73,1.66-1.633,1.66h-4.627
	c-0.902,0-1.634-0.743-1.634-1.66v-1.663c0-0.916,0.731-1.659,1.634-1.659h4.627c0.902,0,1.633,0.743,1.633,1.659V42.08z
	 M17.557,33.387c0,0.918-0.73,1.663-1.633,1.663h-4.627c-0.902,0-1.634-0.746-1.634-1.663v-1.663c0-0.915,0.731-1.659,1.634-1.659
	h4.627c0.902,0,1.633,0.744,1.633,1.659V33.387z M17.557,24.692c0,0.917-0.73,1.665-1.633,1.665h-4.627
	c-0.902,0-1.634-0.745-1.634-1.665v-1.659c0-0.918,0.731-1.661,1.634-1.661h4.627c0.902,0,1.633,0.743,1.633,1.661V24.692z
	 M28.889,42.08c0,0.917-0.732,1.66-1.634,1.66h-4.624c-0.905,0-1.637-0.743-1.637-1.66v-1.663c0-0.916,0.731-1.659,1.637-1.659
	h4.624c0.901,0,1.634,0.743,1.634,1.659V42.08z M28.889,33.387c0,0.918-0.732,1.663-1.634,1.663h-4.624
	c-0.905,0-1.637-0.746-1.637-1.663v-1.663c0-0.915,0.731-1.659,1.637-1.659h4.624c0.901,0,1.634,0.744,1.634,1.659V33.387z
	 M28.889,24.692c0,0.917-0.732,1.665-1.634,1.665h-4.624c-0.905,0-1.637-0.745-1.637-1.665v-1.659c0-0.918,0.731-1.661,1.637-1.661
	h4.624c0.901,0,1.634,0.743,1.634,1.661V24.692z M40.221,42.08c0,0.917-0.731,1.66-1.633,1.66h-4.625
	c-0.902,0-1.633-0.743-1.633-1.66v-1.663c0-0.916,0.731-1.659,1.633-1.659h4.625c0.902,0,1.633,0.743,1.633,1.659V42.08z
	 M40.221,33.387c0,0.918-0.731,1.663-1.633,1.663h-4.625c-0.902,0-1.633-0.746-1.633-1.663v-1.663c0-0.915,0.731-1.659,1.633-1.659
	h4.625c0.902,0,1.633,0.744,1.633,1.659V33.387z M40.221,24.692c0,0.917-0.731,1.665-1.633,1.665h-4.625
	c-0.902,0-1.633-0.745-1.633-1.665v-1.659c0-0.918,0.731-1.661,1.633-1.661h4.625c0.902,0,1.633,0.743,1.633,1.661V24.692z
	 M40.28,15.693c0,0.918-0.73,1.662-1.632,1.662H11.297c-0.902,0-1.634-0.744-1.634-1.662V8.355c0-0.918,0.731-1.662,1.634-1.662
	h27.352c0.901,0,1.632,0.744,1.632,1.662V15.693z"/>
</svg>
