<?xml version="1.0" encoding="utf-8"?>
<!-- Generator: Adobe Illustrator 15.1.0, SVG Export Plug-In . SVG Version: 6.00 Build 0)  -->
<svg version="1.2" baseProfile="tiny" id="Layer_1" xmlns="http://www.w3.org/2000/svg" xmlns:xlink="http://www.w3.org/1999/xlink"
	 x="0px" y="0px" width="50px" height="50px" viewBox="0 0 50 50" overflow="inherit" xml:space="preserve">
<g>
	<path d="M26.479,49h-2.703v-5.242c-3.627-0.385-6.338-1.139-8.125-2.267c-3.155-2.021-4.704-5.461-4.649-10.32h7.469
		c0.256,2.211,0.624,3.688,1.08,4.45c0.717,1.172,2.126,1.936,4.225,2.289V26.682l-2.232-0.635c-3.511-0.979-5.994-2.346-7.445-4.1
		c-1.439-1.753-2.164-3.858-2.164-6.333c0-1.63,0.286-3.114,0.848-4.437c0.557-1.33,1.346-2.48,2.356-3.442
		c1.304-1.25,2.758-2.106,4.359-2.584c0.974-0.297,2.403-0.514,4.277-0.656V1h2.703v3.548c2.988,0.226,5.33,0.927,7.033,2.1
		c3.095,1.876,4.695,4.921,4.809,9.132h-7.275c-0.141-1.559-0.414-2.709-0.81-3.418c-0.688-1.254-1.942-1.937-3.757-2.062v10.02
		c4.371,1.44,7.302,2.714,8.812,3.817c2.483,1.838,3.71,4.435,3.71,7.787c0,4.421-1.703,7.63-5.111,9.636
		c-2.08,1.218-4.553,1.946-7.41,2.149V49z M23.775,10.346c-1.585,0.036-2.755,0.451-3.515,1.223
		c-0.768,0.792-1.151,1.851-1.151,3.199c0,1.479,0.575,2.638,1.713,3.5c0.646,0.475,1.63,0.913,2.953,1.319V10.346z M26.479,37.81
		c1.441-0.161,2.48-0.486,3.137-0.945c1.152-0.804,1.725-2.193,1.725-4.172c0-1.5-0.534-2.694-1.606-3.572
		c-0.636-0.509-1.72-1.033-3.255-1.578V37.81z"/>
</g>
</svg>
