<?xml version="1.0" encoding="utf-8"?>
<!-- Generator: Adobe Illustrator 15.1.0, SVG Export Plug-In . SVG Version: 6.00 Build 0)  -->
<svg version="1.2" baseProfile="tiny" id="Layer_1" xmlns="http://www.w3.org/2000/svg" xmlns:xlink="http://www.w3.org/1999/xlink"
	 x="0px" y="0px" width="50px" height="50px" viewBox="0 0 50 50" overflow="inherit" xml:space="preserve">
<path d="M14.009,43.445L14.015,42c1.925,0,14.441,0,19.557,0c-0.282,0-0.499,1.115-0.612,1.74c-0.15,0.857-0.074,1.619,0.125,2.379
	l-16.364-0.03C15.227,46.089,14.009,44.914,14.009,43.445z M35.623,8.515c0,2.756-0.025,27.485-0.032,29.485
	c-2.006,0-13.946,0-18.676,0l11.698-9.289L28.586,8.506C29.649,8.509,34.636,8.515,35.623,8.515z M37.44,46h-0.768
	c-0.452,0-0.611-0.932-0.483-1.697C36.415,43.041,37.347,42,37.784,42h-0.007c0.632,0,1.095-0.939,1.095-1.633l0.036-33.071
	c0-0.882-0.736-1.637-1.636-1.64c0,0-6.811-0.026-8.681-0.035C28.6,4.063,28.604,1.92,28.604,1.92c0-0.649-0.394-1.238-1.006-1.486
	c-0.612-0.252-1.312-0.118-1.786,0.338L14.415,11.861c-2.005,1.947-3.587,5.639-3.593,8.407l-0.086,23.084
	c-0.008,3.234,2.668,5.88,5.973,5.891L37.4,49.305c0.898,0,1.6-0.717,1.6-1.599c0-0.005,0-0.005,0-0.005
	C39,46.813,38.347,46,37.44,46z"/>
</svg>
