<?xml version="1.0" encoding="utf-8"?>
<!-- Generator: Adobe Illustrator 15.1.0, SVG Export Plug-In . SVG Version: 6.00 Build 0)  -->
<svg version="1.2" baseProfile="tiny" id="Layer_1" xmlns="http://www.w3.org/2000/svg" xmlns:xlink="http://www.w3.org/1999/xlink"
	 x="0px" y="0px" width="50px" height="50px" viewBox="0 0 50 50" overflow="inherit" xml:space="preserve">
<g>
	<g>
		<g>
			<path d="M17.505,15.107c-0.265,0-0.532-0.106-0.734-0.312c-0.396-0.413-0.394-1.076,0.011-1.483
				c1.284-1.287,1.453-2.989,0.452-4.552c-1.759-2.75-1.655-5.391,0.292-7.441c0.395-0.413,1.047-0.427,1.457-0.024
				c0.41,0.402,0.419,1.065,0.025,1.482c-0.465,0.489-1.876,1.976-0.046,4.839c1.529,2.388,1.239,5.211-0.732,7.188
				C18.029,15.006,17.768,15.107,17.505,15.107L17.505,15.107z"/>
		</g>
	</g>
	<g>
		<g>
			<path d="M22.391,15.107c-0.267,0-0.533-0.106-0.733-0.312c-0.401-0.413-0.396-1.076,0.009-1.483
				c1.285-1.287,1.453-2.989,0.453-4.552c-1.759-2.75-1.656-5.391,0.291-7.441c0.396-0.413,1.048-0.427,1.457-0.024
				c0.409,0.402,0.418,1.065,0.025,1.482c-0.466,0.489-1.877,1.976-0.046,4.839c1.527,2.388,1.24,5.211-0.733,7.188
				C22.912,15.006,22.652,15.107,22.391,15.107L22.391,15.107z"/>
		</g>
	</g>
	<g>
		<g>
			<path d="M27.275,15.107c-0.267,0-0.532-0.106-0.734-0.312c-0.398-0.413-0.394-1.076,0.011-1.483
				c1.282-1.287,1.452-2.989,0.451-4.552c-1.758-2.75-1.656-5.391,0.291-7.441c0.396-0.413,1.047-0.427,1.458-0.024
				c0.409,0.402,0.419,1.065,0.023,1.482c-0.464,0.489-1.876,1.976-0.046,4.839c1.53,2.388,1.242,5.211-0.73,7.188
				C27.799,15.006,27.539,15.107,27.275,15.107L27.275,15.107z"/>
		</g>
	</g>
	<path d="M2,45.181v0.674C2,47.584,3.393,49,5.093,49H40.6c1.701,0,3.092-1.416,3.092-3.146v-0.674H2z"/>
	<path d="M44.426,18.896h-5.953c-0.045,0-0.087,0.011-0.131,0.013c-0.044-0.003-0.084-0.013-0.129-0.013H6.293
		c-1.134,0-2.061,0.944-2.061,2.097v6.594c0,7.5,4.94,12.879,12.002,15.252h12.041c6.446-2.167,11.123-6.836,11.888-13.34h4.265
		c1.964,0,3.572-1.637,3.572-3.636V22.53C47.999,20.532,46.392,18.896,44.426,18.896z M45.32,25.863c0,0.492-0.41,0.909-0.893,0.909
		h-4.153v-5.15h4.153c0.483,0,0.893,0.416,0.893,0.909V25.863z"/>
</g>
</svg>
