<?xml version="1.0" encoding="utf-8"?>
<!-- Generator: Adobe Illustrator 15.1.0, SVG Export Plug-In . SVG Version: 6.00 Build 0)  -->
<svg version="1.2" baseProfile="tiny" id="Layer_1" xmlns="http://www.w3.org/2000/svg" xmlns:xlink="http://www.w3.org/1999/xlink"
	 x="0px" y="0px" width="50px" height="50px" viewBox="0 0 50 50" overflow="inherit" xml:space="preserve">
<g>
	<g>
		<path d="M14.409,44.304v2.867c0,1.567-1.247,2.851-2.799,2.851c-1.543,0-2.791-1.283-2.791-2.851v-2.867H5.98v-9.302l0,0
			c0-2.031,1.351-3.73,3.175-4.247l3.278-7.908c0.467-1.156,1.599-1.977,2.913-1.977h16.795c1.32,0,2.445,0.821,2.928,1.977
			l3.271,7.908c1.842,0.517,3.189,2.216,3.189,4.247l0,0v9.302h-2.855v2.867c0,1.567-1.243,2.851-2.797,2.851
			c-1.549,0-2.794-1.283-2.794-2.851v-2.867H14.409z M11.545,38.454c1.297,0,2.341-1.058,2.341-2.379c0-1.311-1.044-2.38-2.341-2.38
			c-1.286,0-2.346,1.069-2.346,2.38C9.199,37.396,10.259,38.454,11.545,38.454z M38.114,36.075c0-1.311-1.051-2.38-2.351-2.38
			c-1.289,0-2.348,1.069-2.348,2.38c0,1.321,1.059,2.379,2.348,2.379C37.063,38.454,38.114,37.396,38.114,36.075z M35.514,30.593
			l-2.788-6.813c-0.136-0.354-0.456-0.606-0.844-0.606H15.608c-0.378,0-0.705,0.252-0.825,0.606l-2.809,6.813H35.514z"/>
	</g>
	<path d="M38.609,3.554V3.504H20.077C18.574,1.509,16.111,0,13.325,0C8.748,0,5.038,3.7,5.038,8.277c0,4.578,3.71,8.343,8.287,8.343
		c3.481,0,6.459-2.141,7.688-5.133h2.755l1.997-1.998l1.996,1.998h1.245l1.996-1.998l1.997,1.998h1.244l1.997-1.998l1.997,1.998
		h0.372v-0.206l0.021,0.041l3.843-3.862L38.609,3.554z M10.643,10.61c-1.324,0-2.399-1.075-2.399-2.401s1.075-2.4,2.399-2.4
		c1.326,0,2.401,1.074,2.401,2.4S11.969,10.61,10.643,10.61z"/>
</g>
</svg>
