<?xml version="1.0" encoding="utf-8"?>
<!-- Generator: Adobe Illustrator 15.1.0, SVG Export Plug-In . SVG Version: 6.00 Build 0)  -->
<svg version="1.2" baseProfile="tiny" id="Layer_1" xmlns="http://www.w3.org/2000/svg" xmlns:xlink="http://www.w3.org/1999/xlink"
	 x="0px" y="0px" width="50px" height="50px" viewBox="0 0 50 50" overflow="inherit" xml:space="preserve">
<g>
	<path d="M11.119,42.952v2.602c0,1.424-1.147,2.589-2.576,2.589c-1.421,0-2.568-1.165-2.568-2.589v-2.602H3.36v-8.441l0,0
		c0-1.843,1.243-3.389,2.923-3.856l3.017-7.179c0.429-1.049,1.472-1.794,2.682-1.794h15.459c1.217,0,2.254,0.746,2.695,1.794
		l3.014,7.179c1.695,0.468,2.935,2.014,2.935,3.856l0,0v8.441h-2.627v2.602c0,1.424-1.145,2.589-2.574,2.589
		c-1.428,0-2.572-1.165-2.572-2.589v-2.602H11.119z M8.483,37.644c1.194,0,2.155-0.959,2.155-2.159c0-1.189-0.961-2.159-2.155-2.159
		c-1.184,0-2.159,0.97-2.159,2.159C6.324,36.685,7.3,37.644,8.483,37.644z M32.939,35.484c0-1.189-0.965-2.159-2.164-2.159
		c-1.184,0-2.159,0.97-2.159,2.159c0,1.2,0.976,2.159,2.159,2.159C31.975,37.644,32.939,36.685,32.939,35.484z M30.547,30.509
		l-2.567-6.186c-0.123-0.322-0.419-0.55-0.775-0.55h-14.98c-0.348,0-0.65,0.229-0.76,0.55l-2.585,6.186H30.547z"/>
</g>
<g>
	<path d="M39.438,27.179h-1.417v-2.886c-1.901-0.213-3.324-0.628-4.261-1.248c-1.655-1.114-2.467-3.006-2.439-5.682h3.918
		c0.134,1.216,0.325,2.032,0.565,2.448c0.377,0.646,1.114,1.068,2.217,1.263V14.89l-1.172-0.348
		c-1.84-0.539-3.143-1.294-3.903-2.258c-0.755-0.964-1.134-2.124-1.134-3.487c0-0.897,0.149-1.714,0.443-2.441
		c0.292-0.734,0.705-1.368,1.235-1.896c0.685-0.69,1.447-1.161,2.288-1.425c0.507-0.162,1.259-0.282,2.242-0.36V0.75h1.417v1.955
		c1.566,0.123,2.795,0.51,3.688,1.155c1.626,1.033,2.463,2.709,2.521,5.027h-3.814c-0.073-0.857-0.217-1.491-0.426-1.882
		c-0.361-0.689-1.018-1.066-1.969-1.134v5.518c2.291,0.791,3.829,1.493,4.62,2.1c1.304,1.013,1.947,2.442,1.947,4.288
		c0,2.435-0.893,4.202-2.682,5.305c-1.091,0.671-2.388,1.072-3.886,1.184V27.179z M38.021,5.897
		c-0.832,0.02-1.445,0.247-1.843,0.672c-0.404,0.436-0.604,1.019-0.604,1.763c0,0.812,0.301,1.451,0.898,1.926
		c0.338,0.261,0.854,0.502,1.548,0.726V5.897z M39.438,21.018c0.756-0.089,1.301-0.268,1.646-0.521
		c0.602-0.444,0.902-1.208,0.902-2.296c0-0.828-0.279-1.486-0.841-1.968c-0.334-0.28-0.902-0.569-1.707-0.869V21.018z"/>
</g>
</svg>
