<?xml version="1.0" encoding="utf-8"?>
<!-- Generator: Adobe Illustrator 15.1.0, SVG Export Plug-In . SVG Version: 6.00 Build 0)  -->
<svg version="1.2" baseProfile="tiny" id="Layer_1" xmlns="http://www.w3.org/2000/svg" xmlns:xlink="http://www.w3.org/1999/xlink"
	 x="0px" y="0px" width="50px" height="50px" viewBox="0 0 50 50" overflow="inherit" xml:space="preserve">
<rect x="-16" y="1" width="0" height="0"/>
<g>
	<g>
		<g>
			<path d="M16.715,41.773v2.854c0,1.472-1.435,2.675-2.912,2.675c-1.469,0-2.902-1.203-2.902-2.675v-2.854H8.576v-8.564l0,0
				c0-1.905,1.133-3.504,2.871-3.988l3.044-7.553c0.444-1.086,1.445-1.987,2.697-1.987h15.984c1.258,0,2.329,0.901,2.787,1.987
				l3.208,7.488c1.753,0.484,3.129,2.148,3.129,4.054l0,0v8.564h-2.324v2.854c0,1.472-1.431,2.675-2.909,2.675
				c-1.476,0-2.905-1.203-2.905-2.675v-2.854H16.715z M13.57,36.447c1.234,0,2.228-0.992,2.228-2.232
				c0-1.229-0.994-2.231-2.228-2.231c-1.224,0-2.233,1.003-2.233,2.231C11.337,35.455,12.346,36.447,13.57,36.447z M38.856,34.215
				c0-1.229-0.998-2.231-2.236-2.231c-1.226,0-2.232,1.003-2.232,2.231c0,1.24,1.007,2.232,2.232,2.232
				C37.858,36.447,38.856,35.455,38.856,34.215z M36.383,28.982l-2.655-6.402c-0.127-0.333-0.434-0.575-0.802-0.575H17.437
				c-0.36,0-0.672,0.242-0.786,0.575l-2.673,6.402H36.383z"/>
		</g>
	</g>
	<g>
		<polygon points="50,48.75 47.674,48.75 47.674,9.215 2.326,9.215 2.326,48.75 0,48.75 0,6.889 50,6.889 		"/>
	</g>
	<rect x="6.396" y="2.529" width="37.209" height="11.047"/>
</g>
</svg>
