<?xml version="1.0" encoding="utf-8"?>
<!-- Generator: Adobe Illustrator 15.1.0, SVG Export Plug-In . SVG Version: 6.00 Build 0)  -->
<svg version="1.2" baseProfile="tiny" id="Layer_1" xmlns="http://www.w3.org/2000/svg" xmlns:xlink="http://www.w3.org/1999/xlink"
	 x="0px" y="0px" width="50px" height="50px" viewBox="0 0 50 50" overflow="inherit" xml:space="preserve">
<rect x="-16" y="1" width="0" height="0"/>
<g>
	<g>
		<path d="M9.105,42.579v2.717C9.105,46.783,7.906,48,6.414,48c-1.484,0-2.682-1.217-2.682-2.704v-2.717H1V33.76l0,0
			c0-1.925,1.299-3.539,3.054-4.027l3.152-7.499c0.448-1.096,1.537-1.874,2.801-1.874h16.149c1.27,0,2.353,0.778,2.814,1.874
			l3.147,7.499c1.771,0.488,3.066,2.103,3.066,4.027l0,0v8.819h-2.745v2.717c0,1.487-1.196,2.704-2.689,2.704
			c-1.491,0-2.687-1.217-2.687-2.704v-2.717H9.105z M6.352,37.033c1.247,0,2.251-1.002,2.251-2.256c0-1.242-1.004-2.255-2.251-2.255
			c-1.236,0-2.255,1.013-2.255,2.255C4.096,36.031,5.115,37.033,6.352,37.033z M31.897,34.777c0-1.242-1.008-2.255-2.259-2.255
			c-1.237,0-2.256,1.013-2.256,2.255c0,1.254,1.019,2.256,2.256,2.256C30.89,37.033,31.897,36.031,31.897,34.777z M29.398,29.579
			l-2.682-6.46c-0.129-0.336-0.438-0.575-0.811-0.575H10.259c-0.364,0-0.679,0.239-0.794,0.575l-2.701,6.46H29.398z"/>
	</g>
	<path d="M21.434,7.789l-2.653,3.41h-5.464c0.701,1.391,2.996,3.787,6.201,3.16c0.95-0.064,3.382-0.802,4.709-0.488
		c1.768,0.424,1.805,0.58,4.975,3.124l15.554,12.752c0.968,0.855,2.451,0.764,3.309-0.202c0.856-0.968,0.765-2.443-0.203-3.299
		L28.252,10.287C27,9.282,25.893,7.43,25.461,5.827c-0.839-2.755-3.39-4.792-6.422-4.792c-2.442,0-4.755,1.41-5.723,3.261
		l5.381,0.01L21.434,7.789z"/>
</g>
</svg>
