<?xml version="1.0" encoding="utf-8"?>
<!-- Generator: Adobe Illustrator 15.1.0, SVG Export Plug-In . SVG Version: 6.00 Build 0)  -->
<svg version="1.2" baseProfile="tiny" id="Layer_1" xmlns="http://www.w3.org/2000/svg" xmlns:xlink="http://www.w3.org/1999/xlink"
	 x="0px" y="0px" width="50px" height="50px" viewBox="0 0 50 50" overflow="inherit" xml:space="preserve">
<g>
	<path d="M47.791,22.63v-9.863c0.543-0.254,0.64-0.7,0.64-1.21c0-0.792-0.647-1.434-1.43-1.434c-0.783,0-1.463,0.641-1.463,1.434
		c0,0.51,0.076,0.956,0.619,1.21v9.77h-1.088v-8.805h-7.617v-2.752H26.824C26.557,9.291,25.113,8,23.368,8
		c-1.746,0-3.188,1.291-3.458,2.979h-9.66v2.752H1.544v22.014H1v2.2h16.002C18.271,39.173,20.683,40,23.454,40
		c2.771,0,5.182-0.827,6.452-2.055h15.709v-2.2h-0.545v-8.806h1.644c1.249,0,2.287-1.021,2.287-2.286
		C49,23.768,48.334,23.01,47.791,22.63z M16.234,30.79H4.264V16.482h11.97V30.79z M23.454,37.762c-3.044,0-5.513-0.606-5.513-1.354
		s2.469-1.354,5.513-1.354c3.045,0,5.513,0.606,5.513,1.354S26.499,37.762,23.454,37.762z M29.292,30.79h-11.97V16.482h11.97V30.79z
		 M42.35,30.79H30.38V16.482h11.97V30.79z"/>
	<path d="M8.422,22.525c0.794,0.081,1.463,0.422,2.456,0.301c0,0-2.919,1.667-2.919,4.522h4.191c0,0-0.298-4.019,2.045-6.451
		l-0.894-0.764c0,0-0.894,0.864-2.822,0.12c0,0-1.512-0.526-3.101,0.337l0.003-0.395H6.13v3.475h1.192
		C7.323,23.67,7.628,22.445,8.422,22.525z"/>
	<path d="M21.712,22.525c0.795,0.081,1.463,0.422,2.457,0.301c0,0-2.921,1.667-2.921,4.522h4.192c0,0-0.298-4.019,2.046-6.451
		l-0.895-0.764c0,0-0.893,0.864-2.82,0.12c0,0-1.514-0.526-3.102,0.337l0.004-0.395H19.42v3.475h1.192
		C20.612,23.67,20.917,22.445,21.712,22.525z"/>
	<path d="M34.942,22.525c0.794,0.081,1.463,0.422,2.458,0.301c0,0-2.921,1.667-2.921,4.522h4.19c0,0-0.3-4.019,2.047-6.451
		l-0.895-0.764c0,0-0.895,0.864-2.821,0.12c0,0-1.511-0.526-3.102,0.337l0.005-0.395H32.65v3.475h1.193
		C33.844,23.67,34.147,22.445,34.942,22.525z"/>
</g>
</svg>
