<?xml version="1.0" encoding="utf-8"?>
<!-- Generator: Adobe Illustrator 15.1.0, SVG Export Plug-In . SVG Version: 6.00 Build 0)  -->
<svg version="1.2" baseProfile="tiny" id="Layer_1" xmlns="http://www.w3.org/2000/svg" xmlns:xlink="http://www.w3.org/1999/xlink"
	 x="0px" y="0px" width="50px" height="50px" viewBox="0 0 50 50" overflow="inherit" xml:space="preserve">
<g>
	<path d="M40.476,19L29.111,6.773c0.193-0.353,0.311-0.73,0.311-1.151c0-1.46-1.281-2.633-2.861-2.633
		c-0.549,0-1.047,0.158-1.479,0.402c-0.436-0.245-0.937-0.394-1.481-0.394c-1.582,0-2.86,1.186-2.86,2.646
		c0,0.425,0.122,0.784,0.317,1.142L9.827,19H3v9h2v14.481C5,44.863,7.652,47,10.301,47h29.56C42.515,47,45,44.863,45,42.481V28h2v-9
		H40.476z M22.756,8.104c0.27,0.078,0.55,0.152,0.844,0.152c0.544,0,1.045-0.134,1.481-0.377c0.432,0.243,0.93,0.394,1.479,0.394
		c0.3,0,0.586-0.093,0.86-0.175L37.558,19H12.732L22.756,8.104z M13,42.421c0,0.749-0.75,1.358-1.503,1.358
		c-0.746,0-1.497-0.609-1.497-1.358V30.245c0-0.746,0.751-1.351,1.497-1.351c0.753,0,1.503,0.604,1.503,1.351V42.421z M18,42.421
		c0,0.749-0.75,1.358-1.499,1.358c-0.748,0-1.501-0.609-1.501-1.358V30.245c0-0.746,0.754-1.351,1.501-1.351
		c0.749,0,1.499,0.604,1.499,1.351V42.421z M24,42.421c0,0.749-0.746,1.358-1.496,1.358c-0.753,0-1.504-0.609-1.504-1.358V30.245
		c0-0.746,0.751-1.351,1.504-1.351c0.75,0,1.496,0.604,1.496,1.351V42.421z M29,42.421c0,0.749-0.246,1.358-1.004,1.358
		C27.25,43.779,27,43.17,27,42.421V30.245c0-0.746,0.25-1.351,0.996-1.351c0.758,0,1.004,0.604,1.004,1.351V42.421z M35,42.421
		c0,0.749-0.75,1.358-1.496,1.358c-0.756,0-1.504-0.609-1.504-1.358V30.245c0-0.746,0.748-1.351,1.504-1.351
		c0.746,0,1.496,0.604,1.496,1.351V42.421z M40,42.421c0,0.749-0.249,1.358-1.003,1.358c-0.745,0-0.997-0.609-0.997-1.358V30.245
		c0-0.746,0.252-1.351,0.997-1.351c0.754,0,1.003,0.604,1.003,1.351V42.421z"/>
</g>
</svg>
