<?xml version="1.0" encoding="utf-8"?>
<!-- Generator: Adobe Illustrator 15.1.0, SVG Export Plug-In . SVG Version: 6.00 Build 0)  -->
<svg version="1.2" baseProfile="tiny" id="Layer_1" xmlns="http://www.w3.org/2000/svg" xmlns:xlink="http://www.w3.org/1999/xlink"
	 x="0px" y="0px" width="50px" height="50px" viewBox="0 0 50 50" overflow="inherit" xml:space="preserve">
<g>
	<path d="M42.924,12.881h-4.821V7.774C38.103,4.038,35.052,1,31.306,1H18.695c-3.748,0-6.797,3.038-6.797,6.774v5.107H7.075
		C3.719,12.881,1,15.591,1,18.937v23.007C1,45.289,3.719,48,7.075,48h35.849C46.279,48,49,45.289,49,41.943V18.937
		C49,15.591,46.279,12.881,42.924,12.881z M16.15,7.774c0-1.398,1.142-2.536,2.545-2.536h12.611c1.399,0,2.542,1.137,2.542,2.536
		v5.107H16.15V7.774L16.15,7.774z M35.377,34.107c0,0.07-0.117,0.129-0.26,0.129H28.81v6.285c0,0.145-0.058,0.262-0.131,0.262
		h-7.358c-0.071,0-0.13-0.117-0.13-0.262v-6.285h-6.307c-0.145,0-0.262-0.059-0.262-0.133v-7.328c0-0.073,0.117-0.132,0.262-0.132
		h6.307v-6.283c0-0.145,0.059-0.262,0.13-0.262h7.358c0.072,0,0.13,0.117,0.13,0.262v6.283h6.309c0.143,0,0.26,0.059,0.26,0.132
		V34.107L35.377,34.107z"/>
</g>
</svg>
