<?xml version="1.0" encoding="utf-8"?>
<!-- Generator: Adobe Illustrator 15.1.0, SVG Export Plug-In . SVG Version: 6.00 Build 0)  -->
<svg version="1.2" baseProfile="tiny" id="Layer_1" xmlns="http://www.w3.org/2000/svg" xmlns:xlink="http://www.w3.org/1999/xlink"
	 x="0px" y="0px" width="50px" height="50px" viewBox="0 0 50 50" overflow="inherit" xml:space="preserve">
<path d="M41,14.44h-5.001V2.919C35.999,1.859,35.104,1,34,1c-1.105,0-2,0.859-2,1.919V14.44H16.001V2.919
	C16.001,1.859,15.106,1,14,1c-1.105,0-2,0.859-2,1.919V14.44H7c-0.553,0-1,0.429-1,0.959V20.2c0,5.759,10.001,12.446,10.001,21.696
	v3.265h4V49H28v-3.839h4v-3.265c0-9.25,10-15.938,10-21.696v-4.801C42,14.869,41.553,14.44,41,14.44 M22.907,30.492
	c0.065-0.21-0.067-0.283-0.296-0.283h-3.885c-0.23,0-0.295-0.234-0.149-0.403c0,0,8.005-10.211,8.161-10.408
	c0.118-0.186,0.248-0.147,0.207,0.066c-0.062,0.271-1.771,7.202-1.771,7.202c-0.084,0.204,0.036,0.359,0.264,0.359h3.887
	c0.229,0,0.302,0.142,0.162,0.315c0,0-8.017,10.396-8.161,10.569c-0.145,0.174-0.279,0.171-0.206-0.125
	C21.193,37.487,22.907,30.492,22.907,30.492"/>
</svg>
