<?xml version="1.0" encoding="utf-8"?>
<!-- Generator: Adobe Illustrator 15.1.0, SVG Export Plug-In . SVG Version: 6.00 Build 0)  -->
<svg version="1.2" baseProfile="tiny" id="Layer_1" xmlns="http://www.w3.org/2000/svg" xmlns:xlink="http://www.w3.org/1999/xlink"
	 x="0px" y="0px" width="50px" height="50px" viewBox="0 0 50 50" overflow="inherit" xml:space="preserve">
<g>
	<path d="M23.326,21.041c0,0.572,0.188,1.021,0.608,1.354C24.173,22.579,25,22.748,25,22.906V19.33c0,0.014-0.984,0.174-1.266,0.473
		C23.451,20.109,23.326,20.519,23.326,21.041z"/>
	<path d="M26.044,25.982v3.974c1.044-0.062,0.929-0.189,1.171-0.365c0.426-0.312,0.645-0.85,0.645-1.614
		c0-0.58-0.206-1.043-0.604-1.384C27.021,26.396,27.088,26.194,26.044,25.982z"/>
	<path d="M1,12v26h48V12H1z M28.793,31.406c-0.771,0.471-1.705,0.754-2.749,0.832v1.6H25v-1.579c-1.044-0.151-2.31-0.336-2.97-0.771
		c-1.168-0.783-1.705-1.809-1.686-3.888h2.762c0.095,1.04,0.196,1.322,0.365,1.613c0.265,0.456,0.484,0.646,1.528,0.781v-4.345
		l-0.791-0.244c-1.298-0.379-2.2-0.909-2.737-1.586c-0.531-0.679-0.79-1.493-0.79-2.451c0-0.63,0.109-1.205,0.317-1.716
		c0.206-0.515,0.5-0.96,0.874-1.332c0.481-0.485,0.987-0.815,1.578-1c0.36-0.115,0.505-0.199,1.549-0.254V16.16h1.044v0.926
		c1.044,0.087,1.983,0.324,2.612,0.776c1.145,0.727,1.748,2.458,1.79,3.498h-2.689c-0.052-1.04-0.166-1.012-0.312-1.286
		c-0.254-0.486-0.356-0.714-1.4-0.763v3.878c2.087,0.557,2.712,1.05,3.271,1.476c0.919,0.71,1.377,1.718,1.377,3.014
		C30.691,29.389,30.054,30.631,28.793,31.406z"/>
</g>
</svg>
