<?xml version="1.0" encoding="utf-8"?>
<!-- Generator: Adobe Illustrator 15.1.0, SVG Export Plug-In . SVG Version: 6.00 Build 0)  -->
<svg version="1.2" baseProfile="tiny" id="Layer_1" xmlns="http://www.w3.org/2000/svg" xmlns:xlink="http://www.w3.org/1999/xlink"
	 x="0px" y="0px" width="50px" height="50px" viewBox="0 0 50 50" overflow="inherit" xml:space="preserve">
<g>
	<path d="M29.018,35.688c-2.019,1.457-3.23,3.669-3.622,6.204l8.322-6.002c0.133-0.096,0.321-0.064,0.415,0.061
		c0.097,0.134,0.068,0.317-0.065,0.414l-8.321,6.003c2.569,0.397,5.08-0.072,7.099-1.529c2.124-1.528,3.354-3.904,3.674-6.605
		C33.809,33.722,31.143,34.159,29.018,35.688z"/>
	<path d="M15.381,35.89l8.327,6.002c-0.394-2.535-1.603-4.747-3.621-6.204c-2.126-1.528-4.794-1.966-7.504-1.455
		c0.32,2.701,1.551,5.075,3.678,6.605c2.018,1.457,4.526,1.927,7.096,1.529l-8.325-6.003c-0.133-0.095-0.16-0.28-0.065-0.413
		C15.065,35.825,15.25,35.794,15.381,35.89z"/>
	<path d="M28.153,13.475c18.534-10.538-3.597-23.133-3.601-2.05c0.004-21.083-22.13-8.497-3.605,2.05
		c-18.525-10.547-18.531,14.636,0,4.099c-16.82,9.562-0.143,20.818,3.084,7.056v24.863c0,0.277,0.232,0.508,0.519,0.508
		c0.287,0,0.521-0.23,0.521-0.508V24.65c3.234,13.734,19.892,2.491,3.081-7.076C46.679,28.12,46.688,2.937,28.153,13.475z
		 M24.551,17.72c-1.229,0-2.228-0.982-2.228-2.196s0.998-2.196,2.228-2.196c1.231,0,2.228,0.982,2.228,2.196
		S25.782,17.72,24.551,17.72z"/>
</g>
</svg>
