<?xml version="1.0" encoding="utf-8"?>
<!-- Generator: Adobe Illustrator 15.1.0, SVG Export Plug-In . SVG Version: 6.00 Build 0)  -->
<svg version="1.2" baseProfile="tiny" id="Layer_1" xmlns="http://www.w3.org/2000/svg" xmlns:xlink="http://www.w3.org/1999/xlink"
	 x="0px" y="0px" width="50px" height="50px" viewBox="0 0 50 50" overflow="inherit" xml:space="preserve">
<g>
	<path id="path4906" d="M48.894,15.154L44.959,46H31.668l-3.919-30.846h16.226L47.182,4L49,4.509L45.923,15.15L48.894,15.154z"/>
	<path id="path4908" d="M25.87,33.117c0,0,0.497-4.483-6.395-4.483H8.499c-6.882,0-6.395,4.483-6.395,4.483H25.87z"/>
	<path id="path4910" d="M2.104,41.506c0,0-0.487,4.494,6.395,4.494h10.977c6.892,0,6.395-4.494,6.395-4.494H2.104z"/>
	<path id="path4912" d="M24.839,39.33c1.128,0,2.039-0.918,2.039-2.025c0-1.114-0.911-2.027-2.039-2.027H3.04
		C1.917,35.277,1,36.19,1,37.305c0,1.107,0.917,2.025,2.04,2.025H24.839z"/>
</g>
</svg>
