<?xml version="1.0" encoding="utf-8"?>
<!-- Generator: Adobe Illustrator 15.1.0, SVG Export Plug-In . SVG Version: 6.00 Build 0)  -->
<svg version="1.2" baseProfile="tiny" id="Layer_1" xmlns="http://www.w3.org/2000/svg" xmlns:xlink="http://www.w3.org/1999/xlink"
	 x="0px" y="0px" width="50px" height="50px" viewBox="0 0 50 50" overflow="inherit" xml:space="preserve">
<g>
	<g>
		<path d="M35.518,15.067c-0.248,0-0.45-0.2-0.45-0.443v-6.18c0-0.244-0.201-0.443-0.45-0.443H15.382
			c-0.249,0-0.451,0.199-0.451,0.443v6.18c0,0.243-0.2,0.443-0.449,0.443H1.449c-0.247,0-0.449,0.2-0.449,0.441v6.87
			c0,0.242,0.203,0.442,0.449,0.442h20.986c0.249,0,0.451-0.2,0.451-0.442v-1.465c0-0.244,0.205-0.443,0.453-0.443h3.321
			c0.248,0,0.45,0.199,0.45,0.443v1.465c0,0.242,0.205,0.442,0.452,0.442h20.985c0.249,0,0.45-0.2,0.45-0.442v-6.87
			c0-0.243-0.201-0.442-0.45-0.442L35.518,15.067L35.518,15.067z M18.093,15.067c-0.248,0-0.449-0.2-0.449-0.443v-3.513
			c0-0.245,0.201-0.444,0.449-0.444h13.814c0.248,0,0.451,0.2,0.451,0.444v3.513c0,0.243-0.203,0.443-0.451,0.443H18.093z"/>
	</g>
	<g>
		<path d="M27.111,29.865c0,0.242-0.202,0.441-0.45,0.441H23.34c-0.248,0-0.453-0.199-0.453-0.441v-4.938
			c0-0.243-0.203-0.443-0.451-0.443H1.449c-0.247,0-0.449,0.2-0.449,0.443v14.629C1,39.799,1.203,40,1.449,40h47.1
			C48.798,40,49,39.799,49,39.557V24.927c0-0.243-0.202-0.443-0.451-0.443H27.563c-0.247,0-0.451,0.2-0.451,0.443L27.111,29.865
			L27.111,29.865z"/>
	</g>
</g>
</svg>
