<?xml version="1.0" encoding="utf-8"?>
<!-- Generator: Adobe Illustrator 15.1.0, SVG Export Plug-In . SVG Version: 6.00 Build 0)  -->
<svg version="1.2" baseProfile="tiny" id="Layer_1" xmlns="http://www.w3.org/2000/svg" xmlns:xlink="http://www.w3.org/1999/xlink"
	 x="0px" y="0px" width="50px" height="50px" viewBox="0 0 50 50" overflow="inherit" xml:space="preserve">
<g>
	<path d="M39.87,39.616H12.484v-9.679L4.945,6.521C4.856,6.463,4.682,6.338,4.428,6.14c-0.25-0.192-0.507-0.391-0.779-0.6
		c-0.266-0.211-0.52-0.407-0.76-0.602c-0.235-0.197-0.398-0.34-0.488-0.423C2.128,4.273,2,4.079,2,3.93V3.617
		c0-0.057,0-0.159,0-0.31c0-0.14,0.018-0.219,0.042-0.219c0.063-0.15,0.18-0.311,0.359-0.49C2.58,2.42,2.698,2.336,2.759,2.374
		l0.358,0.179c0.026,0,0.17,0.095,0.422,0.285c0.253,0.2,0.56,0.429,0.915,0.693c0.359,0.273,0.71,0.548,1.068,0.849
		c0.36,0.302,0.656,0.531,0.892,0.709C6.568,5.212,6.68,5.32,6.75,5.404c0.074,0.092,0.142,0.221,0.2,0.404l2.186,6.823
		l38.316,2.138l-4.594,15.832H14.581v7.058H39.87V39.616z M44.552,16.734c-0.772-0.117-1.556-0.196-2.345-0.219
		c-0.781-0.031-1.562-0.049-2.337-0.049v2.99h3.972c0.03,0,0.056-0.049,0.086-0.155c0.032-0.104,0.061-0.184,0.087-0.247
		c0.028-0.093,0.076-0.223,0.136-0.426c0.061-0.192,0.119-0.391,0.178-0.6c0.062-0.211,0.111-0.403,0.155-0.583
		c0.051-0.177,0.068-0.308,0.068-0.393v-0.145V16.734z M39.87,20.878v2.907h2.72c0.089-0.179,0.148-0.296,0.178-0.36
		c0.031-0.084,0.086-0.253,0.157-0.493c0.071-0.236,0.139-0.485,0.199-0.749c0.062-0.273,0.129-0.539,0.197-0.785
		c0.076-0.253,0.132-0.429,0.161-0.521H39.87z M39.87,25.255v3.252h1.428l0.935-3.252H39.87z M39.178,47.024
		C38.481,47.674,37.622,48,36.614,48c-1.045,0-1.891-0.338-2.541-1.025c-0.655-0.681-0.984-1.547-0.984-2.585
		c0-0.918,0.34-1.705,1.028-2.367c0.685-0.648,1.497-0.979,2.449-0.979c1.014,0,1.875,0.323,2.588,0.957
		c0.716,0.639,1.072,1.471,1.072,2.476C40.227,45.521,39.875,46.368,39.178,47.024z M37.884,16.292
		c-0.253-0.032-0.51-0.05-0.78-0.076c-0.269-0.011-0.521-0.023-0.763-0.038c-0.236-0.011-0.399-0.018-0.485-0.018
		c-0.061,0-0.155-0.012-0.292-0.03c-0.134-0.012-0.214-0.019-0.241-0.019v3.345h3.076v-3.123
		C38.308,16.333,38.138,16.323,37.884,16.292z M35.322,20.878v2.907h3.076v-2.907H35.322z M35.322,25.255v3.252h3.076v-3.252H35.322
		z M30.547,19.456h3.12V16.16c0-0.037-0.139-0.075-0.422-0.116c-0.287-0.043-0.496-0.069-0.646-0.069
		c-0.175,0-0.522-0.005-1.024-0.018c-0.509-0.02-0.849-0.024-1.027-0.024V19.456z M30.547,20.878v2.907h3.12v-2.907H30.547z
		 M30.547,25.255v3.252h3.12v-3.252H30.547z M25.999,15.804v3.652h3.123v-3.652H25.999z M25.999,20.878v2.907h3.123v-2.907H25.999z
		 M25.999,25.255v3.252h3.123v-3.252H25.999z M21.312,15.443v4.013h3.081v-3.877C23.377,15.489,22.358,15.443,21.312,15.443z
		 M21.312,20.878v2.907h3.081v-2.907H21.312z M21.312,25.255v3.252h3.081v-3.252H21.312z M16.762,19.456h3.126v-4.013
		c0-0.03-0.078-0.061-0.225-0.096c-0.151-0.026-0.268-0.049-0.356-0.082c-0.09,0-0.256-0.014-0.491-0.025
		c-0.235-0.018-0.489-0.018-0.761-0.018c-0.264,0-0.525-0.005-0.78-0.023c-0.25-0.014-0.42-0.018-0.513-0.018V19.456z
		 M16.762,20.878v2.907h3.126v-2.907H16.762z M16.762,25.255v3.252h3.126v-3.252H16.762z M19.396,45.972
		c-0.209,0.403-0.481,0.762-0.824,1.07c-0.345,0.316-0.737,0.551-1.185,0.718C16.94,47.927,16.482,48,16.009,48
		c-0.448,0-0.891-0.086-1.317-0.266c-0.432-0.179-0.818-0.413-1.16-0.71c-0.341-0.305-0.621-0.656-0.825-1.07
		c-0.209-0.419-0.316-0.866-0.316-1.342s0.106-0.936,0.316-1.386c0.204-0.444,0.472-0.823,0.8-1.137
		c0.331-0.303,0.708-0.562,1.138-0.761c0.43-0.188,0.882-0.285,1.364-0.285c1.008,0,1.879,0.349,2.605,1.046
		c0.732,0.696,1.092,1.547,1.092,2.522C19.706,45.119,19.603,45.571,19.396,45.972z M13.194,14.888
		c-0.506-0.018-1.127-0.024-1.873-0.024h-0.266c-0.148,0-0.308,0.007-0.464,0.024c-0.166,0.014-0.324,0.018-0.473,0.018H9.897
		l1.425,4.55h3.79v-4.37C14.338,14.963,13.702,14.901,13.194,14.888z M11.811,20.878c0,0.03,0.019,0.091,0.043,0.177
		c0.034,0.097,0.078,0.25,0.136,0.479c0.062,0.223,0.136,0.458,0.222,0.716c0.094,0.244,0.172,0.482,0.248,0.706
		c0.075,0.224,0.126,0.385,0.155,0.469c0.031,0.063,0.061,0.137,0.092,0.223c0.029,0.087,0.059,0.137,0.086,0.137h2.319v-2.907
		H11.811z M13.281,25.255c0,0.328,0.078,0.681,0.226,1.071c0.062,0.202,0.152,0.499,0.27,0.862c0.117,0.379,0.223,0.682,0.312,0.923
		c0.091,0.236,0.133,0.372,0.133,0.396h0.89v-3.252H13.281z"/>
</g>
</svg>
