<?xml version="1.0" encoding="utf-8"?>
<!-- Generator: Adobe Illustrator 15.1.0, SVG Export Plug-In . SVG Version: 6.00 Build 0)  -->
<svg version="1.2" baseProfile="tiny" id="Layer_1" xmlns="http://www.w3.org/2000/svg" xmlns:xlink="http://www.w3.org/1999/xlink"
	 x="0px" y="0px" width="50px" height="50px" viewBox="0 0 50 50" overflow="inherit" xml:space="preserve">
<path d="M42.863,24.533c2.393-0.638,4.525-1.494,6.137-2.515V7.77C45.354,5.461,39.082,4,33.064,4c-5.6,0-10.661,1.27-14.276,3.309
	C10.252,8.117,9.532,8.445,1,9.252v10.314c8.44,1.349,9.807,1.836,17.765,2.896c3.278,1.855,7.745,3.074,12.735,3.285L38.514,46
	l8.619-2.897l-5.068-14.624c-0.006-0.035-0.012-0.067-0.02-0.105C41.514,26.199,42.17,25.09,42.863,24.533z M34.559,18.701
	c-2.51,0-4.537-2-4.537-4.465c0-2.466,2.027-4.465,4.537-4.465c2.502,0,4.535,2,4.535,4.465
	C39.094,16.701,37.061,18.701,34.559,18.701z"/>
</svg>
