<?xml version="1.0" encoding="utf-8"?>
<!-- Generator: Adobe Illustrator 15.1.0, SVG Export Plug-In . SVG Version: 6.00 Build 0)  -->
<svg version="1.2" baseProfile="tiny" id="Layer_1" xmlns="http://www.w3.org/2000/svg" xmlns:xlink="http://www.w3.org/1999/xlink"
	 x="0px" y="0px" width="50px" height="50px" viewBox="0 0 50 50" overflow="inherit" xml:space="preserve">
<g>
	<path d="M33.752,7.271c-1.59,1.069-2.418,2.907-4.217,3.767c-1.057-1.61-2.869-2.45-3.722-4.27c1.345-1.15,2.585-2.406,3.722-3.769
		C31.25,4.111,32.656,5.533,33.752,7.271z"/>
	<path d="M19.858,7.772c3.621,4.828,14.873,8.272,18.363,1.005c1.672,0.903,2.711,2.446,3.969,3.768
		C36.793,20.772,22.051,15.291,19.858,7.772z"/>
	<path d="M20.354,25.858c2.943,3.117,6.978,6.99,6.948,13.06c-0.053,10.424-13.029,9.521-18.361,4.271
		C4.635,38.953,1.935,32.693,1,26.863c1.257,0.93,1.499,2.779,2.232,4.27c2.117,4.293,6.009,10.889,11.91,11.303
		c3.712,0.26,7.137-1.504,8.189-4.52c1.636-4.688-1.77-8.035-3.474-10.801c-0.889,1.193-1.805,2.355-2.73,3.516
		c-1.617-1.459-3.148-3.006-4.713-4.52c1.129-1.698,2.694-2.152,3.97-3.52c1.57-1.68,3.555-6.473-0.497-7.284
		c-2.705-0.541-5.093,1.292-6.946,2.763c-0.817,0.647-2.825,3.248-3.226,3.266c-1.382,0.059-3.437-4.01-4.219-4.521
		c3.631-2.585,6.448-7.141,12.407-6.029C19.854,11.899,23.903,19.636,20.354,25.858z"/>
	<path d="M35.738,27.867c4.252,4.975,13.508-0.805,9.926-6.53c-6.787-1.568-15.281,13.759-21.587,3.265
		c6.911,2.285,9.126-5.397,16.624-7.033c2.125-0.464,6.193,1.151,7.195,3.015c2.055,3.815,1.469,13.583-3.723,13.815
		C40.777,34.553,36.691,30.689,35.738,27.867z"/>
</g>
</svg>
