<?xml version="1.0" encoding="utf-8"?>
<!-- Generator: Adobe Illustrator 15.1.0, SVG Export Plug-In . SVG Version: 6.00 Build 0)  -->
<svg version="1.2" baseProfile="tiny" id="Layer_1" xmlns="http://www.w3.org/2000/svg" xmlns:xlink="http://www.w3.org/1999/xlink"
	 x="0px" y="0px" width="50px" height="50px" viewBox="0 0 50 50" overflow="inherit" xml:space="preserve">
<path d="M45.93,21.278c0.027-0.073,0.043-0.148,0.055-0.227c0.005-0.03,0.009-0.06,0.01-0.091C45.995,20.94,46,20.921,46,20.902
	c0-0.072-0.009-0.14-0.022-0.206c-0.002-0.012,0-0.025-0.005-0.037c-0.021-0.102-0.059-0.199-0.106-0.29
	c-0.005-0.009-0.006-0.019-0.012-0.028l-5.883-10.65c-0.005-0.008-0.011-0.012-0.017-0.02c-0.053-0.091-0.116-0.176-0.193-0.253
	c-0.016-0.015-0.031-0.028-0.047-0.042c-0.062-0.06-0.137-0.111-0.214-0.159c-0.027-0.018-0.055-0.033-0.082-0.048
	c-0.022-0.012-0.044-0.027-0.066-0.04c-0.067-0.03-0.136-0.049-0.205-0.068c-0.013-0.006-0.027-0.011-0.042-0.016
	c-0.114-0.029-0.229-0.042-0.342-0.044C38.751,9.003,38.742,9,38.732,9h-25.5c-0.021,0-0.04,0.005-0.06,0.007
	c-0.07,0.003-0.142,0.011-0.213,0.023c-0.036,0.008-0.072,0.013-0.108,0.022c-0.019,0.004-0.038,0.006-0.057,0.01
	c-0.054,0.018-0.102,0.041-0.151,0.061c-0.027,0.014-0.055,0.021-0.081,0.034c-0.092,0.046-0.178,0.101-0.254,0.162
	c-0.01,0.007-0.019,0.021-0.029,0.029c-0.065,0.056-0.123,0.116-0.174,0.182c-0.007,0.01-0.018,0.017-0.025,0.027L4.238,20.2
	c0,0,0,0.001-0.001,0.002l-0.003,0.004c-0.002,0.002-0.002,0.004-0.003,0.008c-0.067,0.09-0.116,0.193-0.155,0.3
	c-0.008,0.024-0.017,0.046-0.024,0.071C4.021,20.687,4,20.792,4,20.902c0,0.004,0.001,0.007,0.001,0.012
	c0,0.011,0.003,0.024,0.004,0.036c0.005,0.104,0.024,0.202,0.055,0.299c0.008,0.024,0.016,0.045,0.025,0.071
	c0.042,0.106,0.097,0.208,0.167,0.298c0.001,0.003,0.002,0.008,0.005,0.012l19.604,24.83c0.001,0.001,0.001,0.001,0.002,0.003
	l0.01,0.013c0.076,0.098,0.168,0.179,0.269,0.249c0.027,0.02,0.058,0.036,0.088,0.055c0.083,0.052,0.17,0.093,0.263,0.126
	c0.036,0.012,0.072,0.027,0.108,0.038C24.73,46.976,24.863,47,25,47c0.14,0,0.271-0.024,0.4-0.058
	c0.036-0.011,0.07-0.025,0.107-0.038c0.093-0.033,0.18-0.074,0.263-0.126c0.029-0.019,0.061-0.035,0.091-0.055
	c0.1-0.071,0.19-0.151,0.266-0.249l0.011-0.013c0.002-0.002,0.002-0.002,0.002-0.003l19.604-24.83
	c0.003-0.004,0.004-0.008,0.007-0.012c0.063-0.083,0.115-0.173,0.156-0.27C45.916,21.324,45.923,21.301,45.93,21.278z
	 M12.813,13.076l2.421,6.572H7.971L12.813,13.076z M19.74,19.649L25,12.51l5.261,7.139H19.74z M31.014,22.153L25,41.19l-6.01-19.038
	H31.014z M27.586,11.504h8.907l-3.816,6.907L27.586,11.504z M17.573,18.077l-2.421-6.573h7.263L17.573,18.077z M16.111,22.153
	l5.357,16.967L8.073,22.153H16.111z M33.892,22.153h8.036L28.533,39.12L33.892,22.153z M35.088,19.649l3.646-6.597l3.645,6.597
	H35.088z"/>
</svg>
