<?xml version="1.0" encoding="utf-8"?>
<!-- Generator: Adobe Illustrator 15.1.0, SVG Export Plug-In . SVG Version: 6.00 Build 0)  -->
<svg version="1.2" baseProfile="tiny" id="Layer_1" xmlns="http://www.w3.org/2000/svg" xmlns:xlink="http://www.w3.org/1999/xlink"
	 x="0px" y="0px" width="50px" height="50px" viewBox="0 0 50 50" overflow="inherit" xml:space="preserve">
<g>
	<g>
		<path d="M25.154,17.347c3.953,0,7.144-3.217,7.144-7.183c0-3.958-3.19-7.164-7.144-7.164c-3.948,0-7.153,3.207-7.153,7.164
			C18.001,14.129,21.207,17.347,25.154,17.347z"/>
	</g>
	<g>
		<path d="M32.105,19.062c3.271,0,4.644,2.763,4.644,2.763l10.557,14.53C47.742,37.004,48,37.79,48,38.646
			c0,2.26-1.828,4.093-4.081,4.093c-0.539,0-1.162-0.119-1.62-0.297l-6.502-1.775V47H13.998v-6.333l-6.401,1.777
			C7.147,42.62,6.629,42.74,6.088,42.74C3.837,42.74,2,40.91,2,38.65c0-0.856,0.253-1.637,0.706-2.288l10.55-14.538
			c0,0,1.372-2.763,4.629-2.763H32.105z M25.006,42.588L25.006,42.588l8.246-2.74l-0.179-0.05c-5.705-1.672-3.619-9.228,2.071-7.537
			l0.652,0.269v-8.521l-10.889,3.623l-10.91-3.623v8.521l0.755-0.269c5.688-1.69,7.898,5.865,2.197,7.537l-0.2,0.05L25.006,42.588
			L25.006,42.588z"/>
	</g>
</g>
</svg>
