<?xml version="1.0" encoding="utf-8"?>
<!-- Generator: Adobe Illustrator 15.1.0, SVG Export Plug-In . SVG Version: 6.00 Build 0)  -->
<svg version="1.2" baseProfile="tiny" id="Layer_1" xmlns="http://www.w3.org/2000/svg" xmlns:xlink="http://www.w3.org/1999/xlink"
	 x="0px" y="0px" width="50px" height="50px" viewBox="0 0 50 50" overflow="inherit" xml:space="preserve">
<g>
	<polygon points="46,29.122 46,49 31.492,49 31.492,45.394 18.326,45.394 18.326,49 4,49 4,29.122 	"/>
	<path d="M36.949,25.469c-0.574-2.509-1.869-4.604-3.91-6.291c-1.977-1.643-4.316-2.591-7.029-2.843h-0.196V9.672
		c0.169-0.028,0.364-0.05,0.618-0.141c0.359-0.125,0.744-0.269,1.193-0.425c0.441-0.149,0.863-0.274,1.279-0.362
		c0.408-0.097,0.703-0.138,0.896-0.138c0.377,0,0.859,0.06,1.418,0.182c0.568,0.138,1.176,0.287,1.791,0.456
		c0.641,0.194,1.215,0.341,1.77,0.466c0.529,0.121,0.994,0.171,1.361,0.171c0.584,0,1.209-0.081,1.904-0.259V2.381
		c-0.574,0.238-1.199,0.369-1.904,0.369c-0.367,0-0.832-0.056-1.361-0.19c-0.553-0.106-1.129-0.271-1.77-0.457
		c-0.615-0.187-1.199-0.328-1.736-0.446c-0.543-0.129-0.99-0.191-1.375-0.191c-1.273,0-2.635,0.301-4.084,0.856V1h-1.773v15.334
		h-0.104c-2.692,0.253-5.049,1.201-7.024,2.844c-2.002,1.688-3.302,3.781-3.917,6.292c0,0-1.917-0.311-1.917,1.758h27.97
		C39.049,25.388,36.949,25.469,36.949,25.469z"/>
</g>
</svg>
