<?xml version="1.0" encoding="utf-8"?>
<!-- Generator: Adobe Illustrator 15.1.0, SVG Export Plug-In . SVG Version: 6.00 Build 0)  -->
<svg version="1.2" baseProfile="tiny" id="Layer_1" xmlns="http://www.w3.org/2000/svg" xmlns:xlink="http://www.w3.org/1999/xlink"
	 x="0px" y="0px" width="50px" height="50px" viewBox="0 0 50 50" overflow="inherit" xml:space="preserve">
<g>
	<path d="M35.822,41.577c-10.427,3.467-21.697-2.162-25.169-12.574C7.181,18.592,12.82,7.341,23.247,3.874
		C28.175,2.235,33.29,2.629,37.682,4.6C31.833,0.987,24.48-0.104,17.443,2.235C4.853,6.423-1.956,20.008,2.237,32.579
		C6.43,45.152,20.037,51.95,32.63,47.765C42.078,44.623,48.271,36.188,49,26.861C47.574,33.519,42.761,39.271,35.822,41.577z"/>
	<polygon points="34.259,6.872 38.353,14.534 47.224,13.681 40.626,20.049 44.744,28.097 36.765,24.267 30.245,30.197 
		31.566,21.509 23.765,17.079 32.177,15.425 	"/>
</g>
</svg>
