<?xml version="1.0" encoding="utf-8"?>
<!-- Generator: Adobe Illustrator 15.1.0, SVG Export Plug-In . SVG Version: 6.00 Build 0)  -->
<svg version="1.2" baseProfile="tiny" id="Layer_1" xmlns="http://www.w3.org/2000/svg" xmlns:xlink="http://www.w3.org/1999/xlink"
	 x="0px" y="0px" width="50px" height="50px" viewBox="0 0 50 50" overflow="inherit" xml:space="preserve">
<g>
	<rect x="11.517" y="1" width="9.128" height="6.642"/>
	<path d="M30.946,29.645c-0.873,0-1.559-0.713-1.559-1.592V9.724h13.799L49,34.74l-0.031,1.613V47.41
		c0,0.85-0.676,1.541-1.518,1.541H34.03c-0.833,0-1.526-0.691-1.526-1.541V29.645h-1.443"/>
	<path d="M19.04,29.684c0.866,0,1.557-0.701,1.557-1.586V9.748H6.822L1,34.766L1.028,36.4v11.053c0,0.854,0.679,1.547,1.52,1.547
		h13.405c0.854,0,1.533-0.693,1.533-1.547v-17.77h1.435"/>
	<rect x="22.615" y="9.748" width="4.731" height="17.038"/>
	<rect x="29.388" y="1" width="9.132" height="6.642"/>
</g>
</svg>
