<?xml version="1.0" encoding="utf-8"?>
<!-- Generator: Adobe Illustrator 15.1.0, SVG Export Plug-In . SVG Version: 6.00 Build 0)  -->
<svg version="1.2" baseProfile="tiny" id="Layer_1" xmlns="http://www.w3.org/2000/svg" xmlns:xlink="http://www.w3.org/1999/xlink"
	 x="0px" y="0px" width="50px" height="50px" viewBox="0 0 50 50" overflow="inherit" xml:space="preserve">
<rect x="-16" y="1" width="0" height="0"/>
<path d="M48.973,7h-15.63c0,0-2.084,5.21,1.042,16.671c0.887,1.479,3.151,2.242,5.615,2.375V36h-0.752l-3.821,3h11.462l-3.734-3H43
	V25.901c2.1-0.314,3.996-1.073,4.931-2.23C51.057,14.294,48.973,7,48.973,7z M48,13H34V8h14V13z"/>
<path d="M21.5,36H16v-9h-0.097l11.188-17H0l11.188,17H11v9H5.5C4.671,36,4,36.672,4,37.5S4.671,39,5.5,39h16
	c0.829,0,1.5-0.672,1.5-1.5S22.329,36,21.5,36z"/>
</svg>
