<?xml version="1.0" encoding="utf-8"?>
<!-- Generator: Adobe Illustrator 15.1.0, SVG Export Plug-In . SVG Version: 6.00 Build 0)  -->
<svg version="1.2" baseProfile="tiny" id="Layer_1" xmlns="http://www.w3.org/2000/svg" xmlns:xlink="http://www.w3.org/1999/xlink"
	 x="0px" y="0px" width="50px" height="50px" viewBox="0 0 50 50" overflow="inherit" xml:space="preserve">
<g>
	<path d="M12.333,21.6h2.666v16.802h4V24h4v14.401h4V24h4v14.401h4V21.6h2.666C38.402,21.6,39,21.063,39,20.4
		c0-0.401-0.221-0.753-0.555-0.971l0.002-0.002l-0.021-0.011c-0.012-0.007-0.023-0.014-0.033-0.021l-12.727-6.456v-1.892
		c2.352,1.059,4.286-0.765,7.334,0.332V7.2c-3.051-1.096-4.984,0.727-7.334-0.332V6.6C25.666,6.269,25.369,6,25,6
		s-0.667,0.269-0.667,0.6v6.339l-12.726,6.456c-0.012,0.006-0.023,0.013-0.035,0.021l-0.019,0.012v0.002
		c-0.333,0.218-0.553,0.57-0.553,0.971C11,21.063,11.597,21.6,12.333,21.6z"/>
	<polygon points="13.666,39.6 11,41.999 39,41.999 36.334,39.6 	"/>
	<path d="M36.334,22.8v15.602h0.551l0.391,0.352l2.666,2.399L40.885,42H49V22.8H36.334z M41.666,35.4H39V31.8h2.666V35.4z
		 M41.666,29.4H39v-3.6h2.666V29.4z M46.332,35.4h-2.666V31.8h2.666V35.4z M46.332,29.4h-2.666v-3.6h2.666V29.4z"/>
	<path d="M13.114,38.401h0.551V22.8H1V42h8.114l0.942-0.848l2.667-2.399L13.114,38.401z M6.333,35.4H3.667V31.8h2.667V35.4
		L6.333,35.4z M6.333,29.4H3.667v-3.6h2.667V29.4L6.333,29.4z M11,35.4H8.333V31.8H11V35.4z M11,29.4H8.333v-3.6H11V29.4z"/>
</g>
</svg>
