<?xml version="1.0" encoding="utf-8"?>
<!-- Generator: Adobe Illustrator 15.1.0, SVG Export Plug-In . SVG Version: 6.00 Build 0)  -->
<svg version="1.2" baseProfile="tiny" id="Layer_1" xmlns="http://www.w3.org/2000/svg" xmlns:xlink="http://www.w3.org/1999/xlink"
	 x="0px" y="0px" width="50px" height="50px" viewBox="0 0 50 50" overflow="inherit" xml:space="preserve">
<g>
	<path d="M22.702,16.665c0,1.564-1.548,3.227-3.53,3.227v26.308c0,3.735-5.538,3.735-5.538,0V19.892
		c-1.937,0-3.634-1.376-3.634-3.463V1.956c0-1.259,1.979-1.309,1.979,0.054v10.701h1.656h1.901h-0.144V1.932
		c0-1.21,1.851-1.254,1.851,0.033v10.747h3.531V1.932c0-1.194,1.927-1.242,1.927,0.033V16.665z"/>
	<path d="M40,5.333v40.851c0,3.659-5.535,3.602-5.535,0V29.979h-2.943V5.333C31.521-0.402,40-0.402,40,5.333z"/>
</g>
</svg>
