<?xml version="1.0" encoding="utf-8"?>
<!-- Generator: Adobe Illustrator 15.1.0, SVG Export Plug-In . SVG Version: 6.00 Build 0)  -->
<svg version="1.2" baseProfile="tiny" id="Layer_1" xmlns="http://www.w3.org/2000/svg" xmlns:xlink="http://www.w3.org/1999/xlink"
	 x="0px" y="0px" width="50px" height="50px" viewBox="0 0 50 50" overflow="inherit" xml:space="preserve">
<g id="Your_Icon_2_">
	<path d="M27.984,30.729c-2.251,0-4.078,1.85-4.078,4.135c0,2.284,1.828,4.137,4.078,4.137c2.252,0,4.077-1.853,4.077-4.137
		C32.062,32.578,30.236,30.729,27.984,30.729z M27.984,37.053c-1.195,0-2.16-0.979-2.16-2.189c0-1.209,0.965-2.193,2.16-2.193
		c1.191,0,2.161,0.984,2.161,2.193C30.146,36.074,29.176,37.053,27.984,37.053z"/>
	<path d="M44.857,12.494C43.414,11.996,34.102,11,27.972,11c-6.129,0-15.98,1.009-17.441,1.441c-0.15,0.044-4.491,1.245-4.491,5.972
		V31.03c0,0.856,0.281,1.645,0.755,2.279H1v1.479h21.965c0-2.826,2.262-5.122,5.048-5.122c2.79,0,5.051,2.297,5.051,5.122h12.231
		c2.048,0,3.704-1.684,3.704-3.758V17.743C49,15.668,47.44,13.387,44.857,12.494z M20.07,22.458c0,0.394-0.316,0.712-0.702,0.712
		h-6.583c-0.388,0-0.702-0.318-0.702-0.712v-4.662c0-0.393,0.314-0.71,0.702-0.71h6.583c0.386,0,0.701,0.318,0.701,0.71
		L20.07,22.458L20.07,22.458z M44.001,22.458c0,0.394-0.311,0.712-0.701,0.712H28.734c-0.39,0-0.701-0.318-0.701-0.712v-4.662
		c0-0.393,0.312-0.71,0.701-0.71H43.3c0.391,0,0.701,0.318,0.701,0.71V22.458z"/>
</g>
</svg>
