<?xml version="1.0" encoding="utf-8"?>
<!-- Generator: Adobe Illustrator 15.1.0, SVG Export Plug-In . SVG Version: 6.00 Build 0)  -->
<svg version="1.2" baseProfile="tiny" id="Layer_1" xmlns="http://www.w3.org/2000/svg" xmlns:xlink="http://www.w3.org/1999/xlink"
	 x="0px" y="0px" width="50px" height="50px" viewBox="0 0 50 50" overflow="inherit" xml:space="preserve">
<g>
	<path d="M29.881,9.049v32.443H6.359V9.049H29.881 M34.249,4.721H2v41.1h32.249V4.721L34.249,4.721z"/>
	<rect x="9.035" y="11.93" width="18.668" height="3.614"/>
	<rect x="8.785" y="19.386" width="18.671" height="3.599"/>
	<rect x="8.785" y="27.07" width="18.671" height="3.612"/>
	<rect x="8.785" y="35.248" width="18.671" height="3.605"/>
	<rect x="39.938" y="11.93" width="8.013" height="27.762"/>
	<path d="M43.979,1c-2.194,0-3.975,1.765-3.975,3.937v3.938h7.937V4.937C47.94,2.765,46.164,1,43.979,1z"/>
	<polygon points="39.938,42.613 43.979,49 48,42.613 	"/>
</g>
</svg>
