<?xml version="1.0" encoding="utf-8"?>
<!-- Generator: Adobe Illustrator 15.1.0, SVG Export Plug-In . SVG Version: 6.00 Build 0)  -->
<svg version="1.2" baseProfile="tiny" id="Layer_1" xmlns="http://www.w3.org/2000/svg" xmlns:xlink="http://www.w3.org/1999/xlink"
	 x="0px" y="0px" width="50px" height="50px" viewBox="0 0 50 50" overflow="inherit" xml:space="preserve">
<g>
	<path d="M25.577,8.938c2.297,0.169,4.306-1.468,4.488-3.648c0.184-2.191-1.53-4.108-3.827-4.277c-2.3-0.167-4.309,1.46-4.487,3.651
		C21.572,6.854,23.287,8.767,25.577,8.938z"/>
	<path d="M22.049,10.566c0.817-0.54,1.827-0.902,2.925-0.827c1.43,0.12,2.613,0.959,3.312,1.999l4.22,7.946l5.732,3.768
		c0.495,0.353,0.791,0.943,0.74,1.575c-0.08,0.98-0.988,1.715-2.026,1.64c-0.313-0.012-0.558-0.129-0.861-0.264l-6.263-4.107
		c-0.194-0.16-0.343-0.329-0.468-0.533l-1.581-2.983l-1.88,7.936l7.398,8.338c0.164,0.26,0.274,0.548,0.344,0.851l1.993,10.07
		c-0.006,0.222,0.027,0.362,0.017,0.548c-0.124,1.486-1.487,2.586-3.044,2.468c-1.28-0.094-2.242-1.014-2.543-2.129l-1.884-9.431
		l-6.001-6.273l-1.406,6.11c-0.044,0.287-0.44,0.895-0.566,1.143l-5.76,9.262c-0.581,0.856-1.538,1.393-2.648,1.318
		c-1.556-0.119-2.715-1.414-2.594-2.904c0.034-0.416,0.221-0.848,0.381-1.152l5.364-8.581l4.463-18.899l-2.917,2.257l-1.546,6.737
		c-0.203,0.848-1.029,1.558-2.01,1.482c-1.025-0.084-1.806-0.934-1.73-1.935c0.015-0.073,0.025-0.157,0.042-0.232l1.845-7.851
		c0.094-0.352,0.301-0.644,0.577-0.865L22.049,10.566z"/>
	<path d="M17.757,28.891h-2.253c0.025-0.436,0.018-0.944-0.047-1.551c-0.08-0.747-0.337-1.115-0.791-1.115h-3.681
		c-0.327,0-0.548,0.199-0.662,0.612c-0.11,0.405-0.167,0.828-0.167,1.261c0,0.312,0,0.569,0,0.793H7.826L6.438,41.024h6.351h6.354
		L17.757,28.891z M10.929,28.891c-0.014-0.277-0.01-0.588,0.028-0.955c0.056-0.473,0.233-0.715,0.545-0.715
		c0.451,0,0.856,0,1.217-0.009c0.366-0.013,0.86-0.024,1.479-0.024c0.243,0,0.403,0.146,0.494,0.435
		c0.083,0.286,0.131,0.562,0.131,0.833c0,0.162-0.008,0.304-0.019,0.436h-2.016H10.929z"/>
	<path d="M41.396,28.891h-2.252c0.021-0.436,0.018-0.944-0.051-1.551c-0.081-0.747-0.338-1.115-0.789-1.115h-3.681
		c-0.327,0-0.55,0.199-0.662,0.612c-0.107,0.405-0.166,0.828-0.166,1.261c0,0.312,0,0.569,0,0.793h-2.327l-1.391,12.134h6.353h6.354
		L41.396,28.891z M34.566,28.891c-0.016-0.277-0.011-0.588,0.029-0.955c0.052-0.473,0.232-0.715,0.545-0.715
		c0.449,0,0.856,0,1.217-0.009c0.363-0.013,0.858-0.024,1.481-0.024c0.239,0,0.401,0.146,0.491,0.435
		c0.086,0.286,0.132,0.562,0.132,0.833c0,0.162-0.009,0.304-0.016,0.436H36.43H34.566z"/>
</g>
</svg>
