<?xml version="1.0" encoding="utf-8"?>
<!-- Generator: Adobe Illustrator 15.1.0, SVG Export Plug-In . SVG Version: 6.00 Build 0)  -->
<svg version="1.2" baseProfile="tiny" id="Layer_1" xmlns="http://www.w3.org/2000/svg" xmlns:xlink="http://www.w3.org/1999/xlink"
	 x="0px" y="0px" width="50px" height="50px" viewBox="0 0 50 50" overflow="inherit" xml:space="preserve">
<g>
	<path d="M47.231,41.185c0,0-7.415,0-16.188,0v3.793V45c3.843,0,6.487,0,6.487,0c2.828,0,4.054-0.022,5.536-0.022h4.33
		c1.348,0,1.495-1.152,1.495-1.152v-0.97C48.893,42.855,48.988,41.185,47.231,41.185z"/>
	<path d="M44.986,40.21C47.2,40.21,49,38.408,49,36.188c0-2.227-1.8-4.023-4.014-4.023c-2.211,0-4.006,1.797-4.006,4.023
		C40.98,38.407,42.775,40.21,44.986,40.21z"/>
	<path d="M36.532,40.447c2.106,0,3.8-1.708,3.8-3.811c-0.001-2.099-1.68-3.312-3.769-3.327l-5.52,0.59v6.548H36.532L36.532,40.447z"
		/>
	<path d="M18.523,13.933c2.459,0,4.448-2,4.448-4.467C22.971,6.999,20.982,5,18.523,5c-2.457,0-4.449,1.999-4.449,4.466
		C14.074,11.933,16.066,13.933,18.523,13.933z"/>
	<path d="M13.981,28.389c-0.011-0.021-0.029-0.033-0.04-0.058l-2.016-4.78l-0.004,9.276h6.025l1.316-1.313l-3.569-1.331
		C14.848,29.865,14.247,29.188,13.981,28.389z"/>
	<path d="M15.258,27.968c0.195,0.438,0.556,0.793,1.01,0.956l6.877,2.549c0.88,0.389,1.908-0.015,2.294-0.898
		c0.386-0.889-0.015-1.924-0.896-2.311l-6.345-2.396l-1.96-4.701l1.278-0.476l1.667,4.028l4.829,1.788v-4.922l2.553,1.523
		l1.272,6.428c0.313,0.918,1.303,1.401,2.217,1.084c0.905-0.314,1.385-1.315,1.074-2.229L29.699,22.2
		c-0.094-0.347-0.293-0.65-0.562-0.877c-0.733-0.812-4.44-4.896-4.704-5.174c-0.388-0.388-1.273-1.029-2.945-1.029h-6
		c-3.41,0-4.066,3.42-3.369,5.189L15.258,27.968z"/>
	<path d="M30.052,33.563H2.967C1.983,33.563,1,34.555,1,35.776c0,0.283,0.001,0.801,0.001,0.801L1,44.978c0,0,1.759,0,2.33,0h26.722
		V33.563z"/>
</g>
</svg>
