<?xml version="1.0" encoding="utf-8"?>
<!-- Generator: Adobe Illustrator 15.1.0, SVG Export Plug-In . SVG Version: 6.00 Build 0)  -->
<svg version="1.2" baseProfile="tiny" id="Layer_1" xmlns="http://www.w3.org/2000/svg" xmlns:xlink="http://www.w3.org/1999/xlink"
	 x="0px" y="0px" width="50px" height="50px" viewBox="0 0 50 50" overflow="inherit" xml:space="preserve">
<g>
	<path d="M25.562,2.694L0.625,20.728h5.845v3.88v17.914h3.769V28.149h7.476v14.372h2.916h23.987v-0.398V24.607v-3.88H50
		L25.562,2.694z M41.667,36.526h-19v-8.377h19V36.526z M41.667,24.446l-0.893,1.071l-0.985-1.178l-0.981,1.178l-0.982-1.178
		l-0.982,1.178l-0.983-1.178l-0.985,1.178h-0.032l-0.984-1.178l-0.982,1.178l-0.982-1.178l-0.982,1.178l-0.981-1.178l-0.985,1.178
		l-0.979-1.178h-0.002l-0.983,1.178l-0.985-1.178l-0.982,1.178l-0.983-1.178l-0.014,0.021l-0.017-0.021l-0.986,1.178l-0.985-1.178
		l-0.982,1.178l-0.98-1.178l-0.984,1.178l-0.982-1.178l-0.983,1.178l-0.985-1.178l-0.981,1.178l-0.981-1.178l-0.985,1.178h-0.032
		l-0.984-1.178l-0.983,1.178l-0.974-1.175v-4.065h31.461V24.446z"/>
</g>
</svg>
