<?xml version="1.0" encoding="utf-8"?>
<!-- Generator: Adobe Illustrator 15.1.0, SVG Export Plug-In . SVG Version: 6.00 Build 0)  -->
<svg version="1.2" baseProfile="tiny" id="Layer_1" xmlns="http://www.w3.org/2000/svg" xmlns:xlink="http://www.w3.org/1999/xlink"
	 x="0px" y="0px" width="50px" height="50px" viewBox="0 0 50 50" overflow="inherit" xml:space="preserve">
<g>
	<path d="M25.018,5.504c10.74,0,19.447,8.707,19.447,19.448v25.07H50l-0.015-25.07C49.985,11.171,38.8,0,25.018,0
		C11.237,0,0.051,11.171,0.051,24.952L0.037,50.035l5.534-0.014v-25.07C5.571,14.21,14.279,5.504,25.018,5.504z"/>
	<g>
		<path d="M31.944,42.336c0-0.023-0.024-0.071-0.077-0.149c0-0.022,0.013-0.041,0.04-0.058c0.022-0.012,0.037-0.026,0.037-0.055
			c0.729-0.301,1.39-0.67,1.98-1.109c0.591-0.442,0.986-1.089,1.19-1.944c0.023-0.099,0.076-0.329,0.146-0.682V20.681
			c0-0.426-0.123-0.868-0.376-1.318c-0.251-0.457-0.563-0.866-0.946-1.229c-0.374-0.36-0.793-0.666-1.26-0.907
			c-0.466-0.238-0.913-0.356-1.342-0.356H18.701c-0.403,0-0.837,0.111-1.304,0.337s-0.896,0.517-1.283,0.87
			c-0.389,0.35-0.71,0.746-0.962,1.185c-0.25,0.446-0.379,0.876-0.379,1.308v17.92c0,0.3,0.08,0.616,0.227,0.94
			c0.152,0.33,0.339,0.637,0.565,0.922c0.227,0.295,0.474,0.56,0.739,0.797c0.264,0.239,0.52,0.434,0.773,0.583
			c0.123,0.051,0.343,0.131,0.66,0.23c0.312,0.1,0.457,0.175,0.433,0.223l-5.169,7.849h3.016l3.775-5.472h10.417l3.771,5.472h3.054
			L31.944,42.336z M22.021,18.379c0-0.126,0.059-0.255,0.188-0.397c0.125-0.139,0.25-0.205,0.378-0.205h4.83
			c0.049,0,0.151,0.048,0.303,0.148c0.146,0.101,0.226,0.201,0.226,0.301v1.849c0,0.127-0.065,0.243-0.189,0.338
			c-0.126,0.104-0.24,0.157-0.339,0.157h-4.866c-0.082-0.052-0.126-0.09-0.154-0.12c-0.074-0.048-0.157-0.114-0.245-0.208
			c-0.089-0.085-0.13-0.177-0.13-0.277V18.379z M17.152,23.549c0-0.251,0.057-0.498,0.169-0.739c0.113-0.239,0.258-0.456,0.434-0.66
			c0.179-0.202,0.386-0.361,0.623-0.488c0.239-0.126,0.486-0.189,0.738-0.189h11.734c0.226,0,0.45,0.053,0.678,0.148
			c0.227,0.102,0.434,0.243,0.624,0.417c0.188,0.174,0.337,0.367,0.454,0.568c0.111,0.196,0.167,0.413,0.167,0.639v4
			c0,0.229-0.063,0.441-0.188,0.656c-0.125,0.221-0.289,0.41-0.492,0.573c-0.203,0.16-0.413,0.293-0.64,0.391
			c-0.227,0.106-0.454,0.152-0.677,0.152H19.191c-0.028,0-0.091-0.013-0.19-0.033c-0.1-0.027-0.178-0.054-0.229-0.079
			c-0.426-0.074-0.802-0.301-1.131-0.679c-0.327-0.38-0.49-0.791-0.49-1.245V23.549z M20.643,39.133
			c-0.389,0.402-0.876,0.603-1.452,0.603c-0.578,0-1.051-0.2-1.417-0.603c-0.365-0.401-0.547-0.896-0.547-1.474
			c0-0.528,0.19-0.985,0.567-1.374c0.377-0.392,0.843-0.588,1.397-0.588c0.576,0,1.062,0.186,1.452,0.545
			c0.39,0.369,0.585,0.848,0.585,1.457C21.229,38.253,21.033,38.731,20.643,39.133z M29.282,39.133
			c-0.388-0.401-0.584-0.896-0.584-1.474c0-0.58,0.206-1.048,0.622-1.417c0.418-0.359,0.9-0.545,1.457-0.545
			c0.573,0,1.047,0.196,1.41,0.588c0.366,0.389,0.55,0.846,0.55,1.374c0,0.578-0.188,1.072-0.567,1.474
			c-0.377,0.402-0.854,0.603-1.435,0.603C30.157,39.735,29.675,39.535,29.282,39.133z"/>
	</g>
</g>
</svg>
