<?xml version="1.0" encoding="utf-8"?>
<!-- Generator: Adobe Illustrator 15.1.0, SVG Export Plug-In . SVG Version: 6.00 Build 0)  -->
<svg version="1.2" baseProfile="tiny" id="Layer_1" xmlns="http://www.w3.org/2000/svg" xmlns:xlink="http://www.w3.org/1999/xlink"
	 x="0px" y="0px" width="50px" height="50px" viewBox="0 0 50 50" overflow="inherit" xml:space="preserve">
<path d="M25,1l7.082,12.106L46,13.109l-6.958,11.89L46,36.893l-13.916,0.002L25,49l-7.083-12.105L4,36.893l6.958-11.894L4,13.109
	l13.918-0.003L25,1z M15.922,24.999l4.488,7.68h9.165l4.501-7.68l-4.499-7.7h-9.151L15.922,24.999z M34.539,32.69h4.041
	l-2.019-3.453L34.539,32.69z M11.417,32.678h4.042l-2.022-3.454L11.417,32.678z M22.991,13h4.042l-2.021-3.452L22.991,13z
	 M36.561,20.754l2.02-3.451h-4.041L36.561,20.754z M13.437,20.769l2.022-3.453h-4.042L13.437,20.769z M25.012,40.442l2.021-3.45
	H22.99L25.012,40.442z"/>
</svg>
