<?xml version="1.0" encoding="utf-8"?>
<!-- Generator: Adobe Illustrator 15.1.0, SVG Export Plug-In . SVG Version: 6.00 Build 0)  -->
<svg version="1.2" baseProfile="tiny" id="Layer_1" xmlns="http://www.w3.org/2000/svg" xmlns:xlink="http://www.w3.org/1999/xlink"
	 x="0px" y="0px" width="50px" height="50px" viewBox="0 0 50 50" overflow="inherit" xml:space="preserve">
<path d="M43.956,22.353l-4.245-10.117c-0.623-1.479-2.089-2.529-3.803-2.529h-7.474c-0.015-1.022-0.072-4.805,0.006-6.545
	c0.079-1.703-6.817-1.706-6.817,0c-0.003,1.501,0,5.486,0,6.545h-7.5c-1.706,0-3.175,1.05-3.777,2.529L6.089,22.353
	c-2.364,0.659-4.114,2.836-4.114,5.436v11.894h3.684v3.669C5.659,45.358,7.274,47,9.275,47c2.011,0,3.634-1.642,3.634-3.648v-3.669
	h24.226v3.669c0,2.007,1.616,3.648,3.623,3.648c2.016,0,3.631-1.642,3.631-3.648v-3.669h3.698V27.789
	C48.088,25.189,46.347,23.012,43.956,22.353z M9.191,32.204c-1.668,0-3.04-1.354-3.04-3.044c0-1.676,1.372-3.043,3.04-3.043
	c1.683,0,3.037,1.367,3.037,3.043C12.228,30.85,10.874,32.204,9.191,32.204z M9.75,22.146l3.643-8.718
	c0.155-0.452,0.579-0.775,1.071-0.775h21.109c0.501,0,0.92,0.323,1.092,0.775l3.626,8.718H9.75z M40.609,32.204
	c-1.668,0-3.04-1.354-3.04-3.044c0-1.676,1.372-3.043,3.04-3.043c1.693,0,3.049,1.367,3.049,3.043
	C43.658,30.85,42.303,32.204,40.609,32.204z"/>
</svg>
