<?xml version="1.0" encoding="utf-8"?>
<!-- Generator: Adobe Illustrator 15.1.0, SVG Export Plug-In . SVG Version: 6.00 Build 0)  -->
<svg version="1.2" baseProfile="tiny" id="Layer_1" xmlns="http://www.w3.org/2000/svg" xmlns:xlink="http://www.w3.org/1999/xlink"
	 x="0px" y="0px" width="50px" height="50px" viewBox="0 0 50 50" overflow="inherit" xml:space="preserve">
<rect x="-16" y="1" width="0" height="0"/>
<g>
	<path d="M20.716,24H3.159c-0.512,0-0.933-0.314-0.933-0.815c0-0.083,0.015-0.115,0.032-0.19l0.935-6.006
		C3.271,16.565,3.652,17,4.11,17h15.657c0.454,0,0.838-0.412,0.915,0.012l0.936,6.399c0.015,0.077,0.033-0.124,0.033-0.038
		C21.651,23.87,21.227,24,20.716,24z M20.013,31.569c-0.987,0-1.791-0.781-1.791-1.75c0-0.964,0.803-1.74,1.791-1.74
		c0.982,0,1.785,0.776,1.785,1.74C21.798,30.788,20.996,31.569,20.013,31.569z M3.836,31.569c-0.979,0-1.782-0.781-1.782-1.75
		c0-0.964,0.802-1.74,1.782-1.74c0.993,0,1.794,0.776,1.794,1.74C5.63,30.788,4.829,31.569,3.836,31.569z M6,12h11v3H6
		C5,15,5,12,6,12z M22.698,14.703c-0.319-1.542-1.412-2.162-2.939-2.783c-1.524-0.619-5.133-1.36-7.788-1.36
		c-2.666,0-6.255,0.742-7.779,1.36c-1.525,0.621-2.635,1.241-2.954,2.783L0,23.289V35h1.785l0,0c0,5,3.361,5,3.361,0l0,0h13.441l0,0
		c0,5,3.36,5,3.36,0l0,0H24V23.289L22.698,14.703z"/>
</g>
<g>
	<path d="M45.285,33.547c0-0.023-0.023-0.066-0.071-0.14c0-0.021,0.012-0.037,0.036-0.052c0.021-0.014,0.035-0.027,0.035-0.051
		c0.673-0.28,1.287-0.623,1.834-1.027c0.546-0.41,0.913-1.008,1.103-1.801c0.02-0.092,0.07-0.306,0.138-0.633V13.493
		c0-0.394-0.118-0.803-0.351-1.22c-0.231-0.424-0.523-0.802-0.874-1.138c-0.35-0.334-0.736-0.616-1.169-0.84
		c-0.432-0.22-0.846-0.33-1.242-0.33H33.022c-0.374,0-0.777,0.104-1.207,0.312c-0.434,0.21-0.831,0.479-1.19,0.805
		c-0.359,0.323-0.657,0.692-0.89,1.097c-0.232,0.413-0.352,0.812-0.352,1.211v16.594c0,0.279,0.073,0.57,0.21,0.873
		c0.142,0.304,0.316,0.589,0.525,0.854c0.209,0.272,0.438,0.517,0.683,0.738c0.245,0.22,0.482,0.401,0.715,0.539
		c0.114,0.049,0.321,0.122,0.614,0.213c0.287,0.093,0.421,0.162,0.4,0.206l-4.789,7.27h2.794l3.497-5.067h9.646l3.492,5.067H50
		L45.285,33.547z M36.094,11.362c0-0.117,0.057-0.237,0.176-0.369c0.114-0.127,0.23-0.189,0.35-0.189h4.474
		c0.046,0,0.141,0.046,0.279,0.138c0.139,0.093,0.21,0.187,0.21,0.28v1.712c0,0.117-0.061,0.224-0.175,0.313
		c-0.117,0.097-0.225,0.145-0.314,0.145h-4.507c-0.075-0.048-0.117-0.083-0.143-0.11c-0.068-0.045-0.146-0.106-0.226-0.193
		c-0.083-0.078-0.124-0.164-0.124-0.256V11.362z M31.585,16.148c0-0.232,0.056-0.461,0.159-0.684
		c0.104-0.22,0.238-0.422,0.401-0.612c0.165-0.187,0.354-0.334,0.576-0.451c0.223-0.117,0.452-0.175,0.684-0.175h10.867
		c0.207,0,0.416,0.048,0.628,0.137c0.209,0.093,0.4,0.224,0.578,0.385c0.174,0.162,0.312,0.341,0.418,0.527
		c0.104,0.182,0.155,0.382,0.155,0.592v3.705c0,0.21-0.058,0.409-0.173,0.609c-0.117,0.202-0.269,0.378-0.454,0.529
		c-0.188,0.147-0.384,0.271-0.595,0.362c-0.209,0.1-0.418,0.141-0.626,0.141H33.476c-0.025,0-0.084-0.011-0.177-0.032
		c-0.092-0.024-0.165-0.047-0.212-0.073c-0.393-0.067-0.743-0.278-1.045-0.629c-0.304-0.35-0.457-0.732-0.457-1.151V16.148z
		 M34.82,30.579c-0.361,0.374-0.812,0.559-1.345,0.559c-0.537,0-0.976-0.185-1.314-0.559c-0.337-0.371-0.505-0.828-0.505-1.364
		c0-0.489,0.175-0.911,0.525-1.273c0.35-0.36,0.779-0.545,1.294-0.545c0.532,0,0.983,0.173,1.345,0.506
		c0.361,0.341,0.541,0.786,0.541,1.351C35.361,29.766,35.182,30.208,34.82,30.579z M42.821,30.579
		c-0.36-0.371-0.543-0.828-0.543-1.364c0-0.537,0.192-0.972,0.577-1.312c0.386-0.333,0.834-0.506,1.349-0.506
		c0.53,0,0.97,0.185,1.307,0.545c0.339,0.362,0.509,0.784,0.509,1.273c0,0.536-0.177,0.993-0.525,1.364
		c-0.351,0.374-0.79,0.559-1.328,0.559C43.631,31.138,43.182,30.953,42.821,30.579z"/>
</g>
</svg>
