<?xml version="1.0" encoding="utf-8"?>
<!-- Generator: Adobe Illustrator 15.1.0, SVG Export Plug-In . SVG Version: 6.00 Build 0)  -->
<svg version="1.2" baseProfile="tiny" id="Layer_1" xmlns="http://www.w3.org/2000/svg" xmlns:xlink="http://www.w3.org/1999/xlink"
	 x="0px" y="0px" width="50px" height="50px" viewBox="0 0 50 50" overflow="inherit" xml:space="preserve">
<g>
	<g>
		<path d="M33,13v-2.763C33,7.758,31.443,5,28.966,5h-8.338C18.15,5,16,7.758,16,10.237V13H5v29h40V13H33z M19,10.237
			C19,9.309,19.7,8,20.628,8h8.338C29.892,8,30,9.309,30,10.237V13H19V10.237z M24.472,37.729c-5.745,0-10.407-4.661-10.407-10.41
			c0-5.745,4.662-10.403,10.407-10.403s10.404,4.658,10.404,10.403C34.876,33.068,30.217,37.729,24.472,37.729z"/>
	</g>
	<path d="M24.474,19.271c-4.451,0-8.061,3.602-8.061,8.048c0,4.454,3.61,8.057,8.061,8.057c4.446,0,8.051-3.603,8.051-8.057
		C32.525,22.873,28.92,19.271,24.474,19.271z M26,33h-3v-8h3V33z M24.5,24c-0.829,0-1.5-0.671-1.5-1.5
		c0-0.043,0.009-0.084,0.013-0.127c-0.001-0.025-0.015-0.047-0.015-0.073c0-0.653,0.493-1.168,1.122-1.245
		C24.242,21.022,24.368,21,24.5,21c0.829,0,1.5,0.671,1.5,1.5S25.329,24,24.5,24z"/>
</g>
</svg>
