<?xml version="1.0" encoding="utf-8"?>
<!-- Generator: Adobe Illustrator 15.1.0, SVG Export Plug-In . SVG Version: 6.00 Build 0)  -->
<svg version="1.2" baseProfile="tiny" id="Layer_1" xmlns="http://www.w3.org/2000/svg" xmlns:xlink="http://www.w3.org/1999/xlink"
	 x="0px" y="0px" width="50px" height="50px" viewBox="0 0 50 50" overflow="inherit" xml:space="preserve">
<g>
	<path d="M25,27.381c-5.406,0-10.241,1.572-13.461,4.036V36h26.926v-4.583C35.243,28.953,30.408,27.381,25,27.381z"/>
	<path d="M49,25.029L25,14L1,25.029l3.911,1.825v2.807c-0.562,0.207-0.958,0.731-0.958,1.354c0,0.368,0.144,0.698,0.377,0.956
		l-1.346,2.828h4.88L6.507,31.97c0.228-0.258,0.378-0.588,0.378-0.956c0-0.622-0.401-1.146-0.958-1.354v-2.337l4.817,2.246V29.37
		c3.41-2.609,8.528-4.265,14.255-4.265c5.728,0,10.848,1.656,14.259,4.265v0.199L49,25.029z"/>
</g>
</svg>
