<?xml version="1.0" encoding="utf-8"?>
<!-- Generator: Adobe Illustrator 15.1.0, SVG Export Plug-In . SVG Version: 6.00 Build 0)  -->
<svg version="1.2" baseProfile="tiny" id="Layer_1" xmlns="http://www.w3.org/2000/svg" xmlns:xlink="http://www.w3.org/1999/xlink"
	 x="0px" y="0px" width="50px" height="50px" viewBox="0 0 50 50" overflow="inherit" xml:space="preserve">
<g id="Your_Icon">
	<path d="M39.664,22.749c-0.356-0.854-0.962-1.497-1.818-1.89c0.428,0.891,0.571,1.462,0.571,2.459c0,0,0,0.034-0.106,1.069
		l-0.107,0.749l-0.107,0.961l-0.071,0.643l0.215,1.747l0.034,0.961l0.071,0.393l0.32,0.465l0.536,0.249l0.783,0.391l0.215,0.641
		l-0.145,0.608v0.818l-0.07,0.464l-0.035,0.465l-0.072,0.391l-0.071,0.354L39.7,35.864l-0.107,0.747v0.286v0.213l-0.036,0.142
		l-0.034,0.107l-0.071,0.145l-0.286,0.142l-0.463,0.142h-0.463l-0.927-0.034h-0.321l-1.034-0.071h-0.142l-0.107-0.073l-0.142-0.212
		l-0.037-0.213l-0.035-0.428l0.072-0.288l0.106-0.176l0.249-0.142l0.285-0.071l0.392-0.071h0.215l0.142-0.036l0.072-0.071
		l0.107-0.178l0.105-0.606l0.178-0.892l0.108-0.498l0.035-0.606v-0.071l-0.035-0.215l-0.071-0.068l-0.143-0.075l-0.607-0.318
		l-1.675-1.141l-1.282-1.317l-0.215-0.358l-0.07-0.179l-0.106-0.249l-0.214-0.354l-0.179-0.249l-0.106-0.107L32.75,28.38
		l-0.249,0.215l-0.214,0.428l-0.214,0.997l0.07,0.748l0.108,0.178l0.25,0.252l0.534,0.532l0.035,0.32l-0.07,0.142l-0.144,0.286
		l-0.533,0.926l-0.357,0.855l-0.321,0.75l-0.177,0.75l-0.145,0.32l-0.104,0.605v0.428l-0.214,0.392l-0.285,0.142l-0.429,0.142
		h-0.498l-0.928-0.034h-0.285l-1.069-0.071H27.37l-0.108-0.07l-0.105-0.215l-0.036-0.213l-0.035-0.428l0.035-0.286l0.142-0.178
		l0.215-0.142l0.107-0.037l0.213-0.034l0.212-0.037h0.251l0.287-0.034h0.069l0.18-0.181l0.283-0.425l0.464-1.033l0.428-1.142
		l0.071-0.354l0.071-0.394v-0.144l-0.036-0.176l-0.143-0.215l-0.214-0.392l-0.214-0.605l-0.071-0.252l-0.498-1.96l-0.179-1.067
		l-0.142-1.676l-0.642,0.57l-0.605,0.571l-0.712,0.499l-1.107,0.713l-1.353,0.711l-1.141,0.357l-1.104,0.178l-1.105,0.213
		l-0.25,0.036l-0.178,0.145l-0.249,0.179l-0.534,0.781l0.141,1.427l0.11,1.139l0.105,1.107l0.144,1.141v0.569L20.1,36.79
		l-0.107,0.286l-0.105,0.285l-0.215,0.213l-0.144,0.105l-0.391,0.107h-1.388l-1.427-0.071l-0.179-0.036l-0.106-0.071l-0.105-0.178
		l-0.039-0.213l-0.033-0.322l0.072-0.428l0.141-0.213l0.213-0.142l0.32-0.071l0.25-0.036l0.321-0.034l0.427-0.071l0.071-0.073V35.72
		v-0.178v-0.286v-0.14l-0.071-0.464l-0.212-0.855l-0.037-0.569l-0.213-0.679l-0.286-0.606l-0.178-0.64l-0.214-0.357l-0.143-0.462
		l-0.32-0.466l-0.179-0.426l-0.142-0.322l-0.178-0.176l-0.215-0.322l-0.464-0.143l-0.284,0.535l-0.32,0.854l-0.357,0.679
		l-0.393,1.104l-0.285,1.212l-0.25,0.496l-0.285,0.464l-0.286,0.678l-0.428,1.461l-0.212,0.571l-0.25,0.499l-0.214,0.393
		l-0.178,0.105l-0.355,0.107H9.943L9.73,37.753H9.444l-1.318-0.037L7.984,37.68l-0.108-0.071l-0.142-0.178L7.7,37.218l-0.037-0.249
		l0.071-0.286l0.071-0.215l0.143-0.213l0.214-0.142l0.606-0.071l0.32-0.07L9.3,35.9l0.144-0.215l0.107-0.569l0.107-0.394
		l0.213-0.962l0.178-1.07l0.213-1.317l0.073-1.212v-0.713l-0.107-0.888l-0.643-0.109L9.16,28.272h-0.57l-0.535-0.249l-0.25-0.608
		l-0.783-0.174l-0.32-0.324l-0.999-0.392l-0.856,0.142l-0.391,0.108l-0.319,0.107L3.85,27.024L3.744,26.99l-0.25-0.286l-0.605-0.359
		L2.603,25.92l-0.072-0.606l-0.25-0.179l-0.604-0.356l-0.286-0.425l-0.142-0.215l-0.178-0.214L1,23.674v-0.25v-0.32l0.071-0.284
		l0.142-0.215l1.889-1.924l0.215-0.392l0.106-0.427l0.071-0.57l0.072-0.215l-0.072-0.25l0.072-0.143L3.6,18.472l0.108-0.215
		l0.179-0.106l0.07-0.215l0.036-0.178l0.106-0.178l0.037-0.213l0.071-0.179l0.179-0.071l0.106-0.142l0.072-0.178l0.143-0.071
		l0.141-0.108l0.108-0.105l0.071-0.25l0.106-0.145l0.215-0.107l0.106-0.106l0.143-0.178l0.249-0.072l0.25-0.108l0.214-0.141
		l0.214-0.143l0.25-0.07l0.39-0.037l0.287-0.108l0.176-0.178l0.25-0.071h0.286l0.355-0.105l0.356,0.035l0.464-0.109h0.534
		l0.427,0.037h0.321l0.358,0.071l0.427,0.036l0.321-0.07l0.283,0.07l0.215,0.143l0.393,0.107l0.463,0.034l0.356,0.145l0.213,0.141
		l0.178,0.144l0.215,0.035l0.142,0.107l0.286,0.036l0.25,0.035l0.249,0.071l0.249,0.214l0.286,0.178l0.286,0.071l0.32,0.037
		l0.283,0.176l0.18,0.214l0.25,0.071l0.179,0.107l0.213,0.071h0.178l0.107,0.071l0.071,0.107l0.107,0.036l0.214,0.035l0.141-0.035
		h0.144l0.143,0.035l0.106,0.106l0.286,0.109h0.178l0.178,0.035l0.356,0.072l0.604,0.034l0.572,0.071l0.32,0.037l0.535,0.07
		l0.677,0.037l0.926,0.071l1.284,0.071l1.104,0.035h1.175l1.533-0.035l1.604-0.108l1.531-0.141l1.142-0.143l1.104-0.178l0.498-0.071
		l0.321-0.037l0.143-0.035h0.143h0.107l0,0c2.316,0,4.419,1.391,5.345,3.494c1.568,3.707,1.925,5.416,2.031,9.442
		c0,1.106,0.927,2.033,2.067,2.033c0.498,0,0.926-0.145,1.318-0.465c0.25-0.178,0.392-0.498,0.392-0.82c0-0.177,0-0.25-0.07-0.392
		c-0.144-0.32-0.179-0.462-0.179-0.818s0.107-0.714,0.285-1.033l1.21-2.033l-0.141,0.929l0.783-1.427l-0.143,1.106l0.855-1.319
		l-0.251,1.21l0.607-0.641l-0.286,1.139L49,27.024l-0.249,0.892c-0.179,0.605-0.179,0.677-0.179,0.748
		c-0.035,0.072-0.035,0.107-0.07,0.75c-0.036,0.64-0.393,1.212-0.928,1.603l-1.496,1.141c-0.569,0.428-1.176,0.641-1.853,0.641
		c-1.318,0-2.459-0.855-2.852-2.064c-0.106-0.357-0.07-0.216-0.106-0.572C41.125,27.63,40.555,25.101,39.664,22.749"/>
</g>
</svg>
